<svg width="21" height="15" viewBox="0 0 21 15" fill="none" xmlns="http://www.w3.org/2000/svg">
<path d="M1.07715 14.1484C0.455566 14.1484 0.0380859 13.7681 0.0380859 13.2021C0.0380859 13.0444 0.0751953 12.8403 0.167969 12.5898L4.24072 1.5498C4.50977 0.807617 4.96436 0.464355 5.69727 0.464355C6.4209 0.464355 6.86621 0.79834 7.14453 1.54053L11.2266 12.5898C11.3193 12.8496 11.3564 13.0259 11.3564 13.2021C11.3564 13.7495 10.9204 14.1484 10.3174 14.1484C9.76074 14.1484 9.45459 13.8887 9.26904 13.2949L8.24854 10.4097H3.12744L2.11621 13.2856C1.92139 13.8887 1.61523 14.1484 1.07715 14.1484ZM3.65625 8.71191H7.71973L5.70654 2.83936H5.65088L3.65625 8.71191ZM15.689 14.167C13.7778 14.167 12.4326 12.9795 12.4326 11.2261C12.4326 9.51904 13.75 8.4707 16.0601 8.34082L18.7412 8.18311V7.43164C18.7412 6.34619 18.0083 5.69678 16.7837 5.69678C15.8188 5.69678 15.1787 6.04004 14.6221 6.93066C14.418 7.22754 14.1582 7.35742 13.8057 7.35742C13.3047 7.35742 12.9429 7.02344 12.9429 6.52246C12.9429 6.31836 12.9985 6.0957 13.1191 5.87305C13.6294 4.76904 15.1045 4.06396 16.8579 4.06396C19.2236 4.06396 20.7358 5.31641 20.7358 7.27393V13.165C20.7358 13.7959 20.3369 14.1763 19.771 14.1763C19.2144 14.1763 18.834 13.8145 18.8154 13.2207V12.395H18.769C18.2031 13.4805 16.96 14.167 15.689 14.167ZM16.2363 12.5806C17.6372 12.5806 18.7412 11.6157 18.7412 10.3447V9.57471L16.3291 9.72314C15.1323 9.80664 14.4551 10.3354 14.4551 11.1704C14.4551 12.0239 15.1694 12.5806 16.2363 12.5806Z" fill="#FFB522"/>
</svg>
