<svg width="56" height="56" viewBox="0 0 56 56" fill="none" xmlns="http://www.w3.org/2000/svg">
<path d="M0 22.4C0 14.5593 0 10.6389 1.52591 7.64413C2.86814 5.00986 5.00986 2.86814 7.64413 1.52591C10.6389 0 14.5593 0 22.4 0H33.6C41.4407 0 45.3611 0 48.3559 1.52591C50.9901 2.86814 53.1319 5.00986 54.4741 7.64413C56 10.6389 56 14.5593 56 22.4V33.6C56 41.4407 56 45.3611 54.4741 48.3559C53.1319 50.9901 50.9901 53.1319 48.3559 54.4741C45.3611 56 41.4407 56 33.6 56H22.4C14.5593 56 10.6389 56 7.64413 54.4741C5.00986 53.1319 2.86814 50.9901 1.52591 48.3559C0 45.3611 0 41.4407 0 33.6V22.4Z" fill="#F55522"/>
<path d="M42.3812 34.6648C42.2515 34.5086 42.1241 34.3523 41.9991 34.2016C40.2804 32.1227 39.2405 30.868 39.2405 24.9828C39.2405 21.9359 38.5116 19.4359 37.0749 17.5609C36.0155 16.1758 34.5835 15.125 32.696 14.3484C32.6717 14.3349 32.65 14.3172 32.6319 14.2961C31.953 12.0227 30.0952 10.5 27.9999 10.5C25.9046 10.5 24.0476 12.0227 23.3687 14.2937C23.3505 14.3141 23.3292 14.3312 23.3054 14.3445C18.9007 16.1578 16.7601 19.6367 16.7601 24.9805C16.7601 30.868 15.7218 32.1227 14.0015 34.1992C13.8765 34.35 13.7491 34.5031 13.6194 34.6625C13.2844 35.0665 13.0722 35.558 13.0078 36.0789C12.9434 36.5997 13.0296 37.1281 13.2562 37.6016C13.7382 38.6172 14.7655 39.2477 15.9382 39.2477H40.0702C41.2374 39.2477 42.2577 38.618 42.7413 37.607C42.9688 37.1335 43.0558 36.6047 42.992 36.0832C42.9282 35.5617 42.7162 35.0695 42.3812 34.6648ZM27.9999 45.5C29.1288 45.4991 30.2365 45.1926 31.2053 44.6132C32.1742 44.0337 32.9682 43.2028 33.503 42.2086C33.5282 42.1609 33.5407 42.1076 33.5392 42.0537C33.5376 41.9998 33.5222 41.9473 33.4944 41.9011C33.4666 41.855 33.4273 41.8168 33.3803 41.7903C33.3334 41.7638 33.2804 41.7499 33.2265 41.75H22.7749C22.7209 41.7498 22.6678 41.7636 22.6208 41.79C22.5737 41.8164 22.5343 41.8546 22.5064 41.9008C22.4785 41.947 22.463 41.9996 22.4614 42.0535C22.4599 42.1075 22.4723 42.1609 22.4976 42.2086C23.0324 43.2027 23.8262 44.0335 24.7949 44.613C25.7636 45.1924 26.8711 45.4989 27.9999 45.5Z" fill="white"/>
</svg>
