<svg width="32" height="32" viewBox="0 0 32 32" fill="none" xmlns="http://www.w3.org/2000/svg">
<path d="M22.2568 4.88184C24.8989 5.01553 27 7.19972 27 9.875V21.875L26.9932 22.1318C26.8638 24.6888 24.8138 26.7388 22.2568 26.8682L22 26.875H10C7.32472 26.875 5.14053 24.7739 5.00684 22.1318L5 21.875V9.875C5 7.11358 7.23858 4.875 10 4.875H22L22.2568 4.88184ZM10 6.375C8.067 6.375 6.5 7.942 6.5 9.875V21.875C6.5 23.808 8.067 25.375 10 25.375H22C23.933 25.375 25.5 23.808 25.5 21.875V9.875C25.5 7.942 23.933 6.375 22 6.375H10ZM20 9L13.75 23H12L18.25 9H20Z" fill="#A7A7A7"/>
</svg>
