<svg width="24" height="24" viewBox="0 0 24 24" fill="none" xmlns="http://www.w3.org/2000/svg">
<path d="M19.9099 15.6657C19.8386 15.5797 19.7685 15.4938 19.6998 15.4109C18.7545 14.2675 18.1826 13.5774 18.1826 10.3405C18.1826 8.66477 17.7817 7.28977 16.9915 6.25852C16.4088 5.49668 15.6212 4.91875 14.5831 4.49164C14.5697 4.48421 14.5578 4.47446 14.5478 4.46285C14.1744 3.21246 13.1527 2.375 12.0002 2.375C10.8478 2.375 9.82644 3.21246 9.45304 4.46156C9.44308 4.47275 9.43131 4.48219 9.41824 4.48949C6.99566 5.4868 5.81832 7.4002 5.81832 10.3393C5.81832 13.5774 5.24726 14.2675 4.30109 15.4096C4.23234 15.4925 4.1623 15.5767 4.09097 15.6644C3.90672 15.8866 3.78998 16.1569 3.75458 16.4434C3.71917 16.7299 3.76657 17.0205 3.89117 17.2809C4.15628 17.8395 4.72132 18.1862 5.36628 18.1862H18.6389C19.2809 18.1862 19.842 17.8399 20.108 17.2839C20.2331 17.0234 20.281 16.7326 20.2459 16.4458C20.2108 16.159 20.0942 15.8882 19.9099 15.6657ZM12.0002 21.625C12.6211 21.6245 13.2303 21.456 13.7632 21.1372C14.2961 20.8185 14.7328 20.3615 15.0269 19.8147C15.0408 19.7885 15.0477 19.7592 15.0468 19.7295C15.046 19.6999 15.0375 19.671 15.0222 19.6456C15.0069 19.6202 14.9853 19.5992 14.9594 19.5847C14.9336 19.5701 14.9045 19.5625 14.8748 19.5625H9.12648C9.0968 19.5624 9.0676 19.57 9.04172 19.5845C9.01584 19.599 8.99416 19.62 8.97881 19.6454C8.96345 19.6708 8.95492 19.6998 8.95407 19.7294C8.95322 19.7591 8.96006 19.7885 8.97394 19.8147C9.26808 20.3615 9.70469 20.8184 10.2375 21.1371C10.7703 21.4558 11.3794 21.6244 12.0002 21.625Z" fill="#252525"/>
</svg>
