<svg width="32" height="32" viewBox="0 0 32 32" fill="none" xmlns="http://www.w3.org/2000/svg">
<path d="M7.70711 13.8067C7.31658 14.1972 7.31658 14.8304 7.70711 15.2209L17.7791 25.2929C18.1696 25.6834 18.8028 25.6834 19.1933 25.2929L20.2698 24.2164C20.4829 24.0034 20.5885 23.7057 20.5574 23.4061L20.17 19.6727C20.1359 19.3443 20.2661 19.0203 20.5178 18.8068L26.1721 14.0115C26.6179 13.6333 26.6458 12.9551 26.2324 12.5417L20.4582 6.76753C20.0449 6.35419 19.3667 6.38198 18.9885 6.82775L14.192 12.4823C13.9784 12.734 13.6544 12.8641 13.3261 12.83L9.59396 12.4426C9.29432 12.4115 8.99663 12.5172 8.78361 12.7302L7.70711 13.8067Z" fill="#A7A7A7"/>
<path d="M6.46967 24.4697C6.17678 24.7626 6.17678 25.2374 6.46967 25.5303C6.76256 25.8232 7.23744 25.8232 7.53033 25.5303L7 25L6.46967 24.4697ZM7 25L7.53033 25.5303L13.1872 19.8735L12.6569 19.3431L12.1265 18.8128L6.46967 24.4697L7 25Z" fill="#A7A7A7"/>
</svg>
