<svg width="18" height="18" viewBox="0 0 18 18" fill="none" xmlns="http://www.w3.org/2000/svg">
<path d="M3.01964 8.0759C3.33382 7.7617 3.72357 7.53198 4.18891 7.38674C4.6572 7.23853 5.16848 7.18666 5.72273 7.23112C6.27698 7.27558 6.83716 7.42972 7.40327 7.69353L9.59063 5.79945C9.49578 5.46154 9.41872 5.13548 9.35945 4.82128C9.30609 4.50709 9.27053 4.21957 9.25274 3.95872C9.23496 3.69788 9.23793 3.47853 9.26164 3.30069C9.2972 3.03984 9.38612 2.83828 9.52839 2.696C9.66473 2.55965 9.82478 2.49444 10.0085 2.50037C10.1923 2.5063 10.3627 2.58781 10.5198 2.74491L15.2591 7.48456C15.4132 7.63869 15.4933 7.80765 15.4992 7.99142C15.5081 8.17816 15.4444 8.33971 15.308 8.47606C15.1657 8.61834 14.9627 8.70578 14.6989 8.73838C14.5211 8.7621 14.3018 8.76506 14.0409 8.74727C13.7801 8.72949 13.4926 8.69096 13.1784 8.63167C12.8672 8.57536 12.5412 8.50125 12.2004 8.40936L10.3064 10.5969C10.5702 11.163 10.7243 11.7233 10.7688 12.2776C10.8132 12.8318 10.7614 13.3432 10.6132 13.8115C10.468 14.2769 10.2382 14.6666 9.92407 14.9808C9.73438 15.1705 9.52246 15.2639 9.28831 15.261C9.06009 15.258 8.84521 15.1557 8.64366 14.9542L6.23845 12.5488L4.16223 14.6251C3.99329 14.7941 3.81842 14.9393 3.63762 15.0609C3.45682 15.1824 3.28788 15.2773 3.13079 15.3454C2.97074 15.4166 2.83588 15.4625 2.72622 15.4833C2.61952 15.507 2.55283 15.5055 2.52615 15.4788C2.49651 15.4492 2.49207 15.3795 2.51281 15.2698C2.53653 15.1631 2.58395 15.0297 2.65508 14.8697C2.72325 14.7126 2.8181 14.5436 2.93962 14.3628C3.06114 14.182 3.20637 14.0071 3.37531 13.8382L5.45153 11.7618L3.04632 9.3564C2.84774 9.15781 2.74548 8.94291 2.73955 8.71171C2.73659 8.47754 2.82995 8.2656 3.01964 8.0759Z" fill="#252525"/>
</svg>
