<svg width="18" height="18" viewBox="0 0 18 18" fill="none" xmlns="http://www.w3.org/2000/svg">
<path d="M2.59959 7.43373C2.9621 7.07119 3.41181 6.80613 3.94874 6.63855C4.48908 6.46754 5.07901 6.40768 5.71853 6.45899C6.35805 6.51029 7.00441 6.68814 7.65761 6.99253L10.1815 4.80705C10.0721 4.41716 9.98314 4.04094 9.91474 3.67841C9.85319 3.31587 9.81215 2.98411 9.79163 2.68314C9.77111 2.38217 9.77453 2.12908 9.80189 1.92387C9.84293 1.62289 9.94552 1.39032 10.1097 1.22616C10.267 1.06883 10.4517 0.993587 10.6637 1.00043C10.8757 1.00727 11.0724 1.10132 11.2536 1.28259L16.722 6.75141C16.8999 6.92926 16.9922 7.12421 16.9991 7.33626C17.0093 7.55173 16.9358 7.73812 16.7785 7.89545C16.6143 8.05962 16.3801 8.16051 16.0757 8.19813C15.8705 8.22549 15.6174 8.22892 15.3165 8.20839C15.0155 8.18787 14.6838 8.14341 14.3213 8.07501C13.9622 8.01003 13.586 7.92452 13.1927 7.8185L11.0074 10.3426C11.3118 10.9958 11.4896 11.6422 11.5409 12.2818C11.5922 12.9214 11.5324 13.5113 11.3614 14.0517C11.1938 14.5887 10.9287 15.0384 10.5662 15.401C10.3474 15.6199 10.1028 15.7276 9.83267 15.7242C9.56933 15.7208 9.32139 15.6028 9.08884 15.3702L6.31359 12.5947L3.91796 14.9906C3.72302 15.1855 3.52125 15.3531 3.31264 15.4933C3.10402 15.6335 2.90909 15.743 2.72783 15.8216C2.54316 15.9037 2.38755 15.9567 2.26102 15.9807C2.1379 16.008 2.06095 16.0063 2.03018 15.9756C1.99598 15.9414 1.99085 15.861 2.01479 15.7344C2.04215 15.6113 2.09686 15.4574 2.17894 15.2727C2.2576 15.0914 2.36704 14.8965 2.50725 14.6879C2.64747 14.4792 2.81504 14.2775 3.00998 14.0825L5.40561 11.6867L2.63037 8.91124C2.40123 8.68209 2.28325 8.43412 2.27641 8.16735C2.27299 7.89716 2.38071 7.65262 2.59959 7.43373Z" fill="black" fill-opacity="0.4"/>
</svg>
