<svg width="24" height="24" viewBox="0 0 24 24" fill="none" xmlns="http://www.w3.org/2000/svg">
<path d="M14.1729 0.5C14.8349 0.500068 15.4698 0.762808 15.9385 1.23047L20.7666 6.0498C21.2362 6.51875 21.5 7.15566 21.5 7.81934V16C21.5 17.3807 20.3807 18.5 19 18.5H10C8.61929 18.5 7.5 17.3807 7.5 16V3C7.5 1.61929 8.61929 0.5 10 0.5H14.1729Z" fill="#3E58EB" stroke="white"/>
<path d="M9.17285 5.5C9.83491 5.50007 10.4698 5.76281 10.9385 6.23047L15.7666 11.0498C16.2362 11.5187 16.5 12.1557 16.5 12.8193V21C16.5 22.3807 15.3807 23.5 14 23.5H5C3.61929 23.5 2.5 22.3807 2.5 21V8C2.5 6.61929 3.61929 5.5 5 5.5H9.17285Z" fill="#3E58EB" stroke="white"/>
<path d="M9.5 6V11.5C9.5 12.0523 9.94772 12.5 10.5 12.5H16" stroke="white" stroke-linecap="round" stroke-linejoin="round"/>
<path d="M14.5 1V6.5C14.5 7.05228 14.9477 7.5 15.5 7.5H21" stroke="white" stroke-linecap="round" stroke-linejoin="round"/>
</svg>
