<svg width="24" height="24" viewBox="0 0 24 24" fill="none" xmlns="http://www.w3.org/2000/svg">
<path d="M20.9181 13.2246H18.1874V11.0594C18.1874 10.93 18.1836 10.8032 18.1758 10.6789C19.4464 9.42645 19.5616 7.77557 19.5624 6.05191C19.5624 5.66514 19.2771 5.33316 18.9072 5.31475C18.8144 5.3102 18.7217 5.32534 18.6347 5.35928C18.5476 5.39322 18.4681 5.44523 18.4008 5.5122C18.3336 5.57916 18.28 5.65967 18.2433 5.74888C18.2066 5.83809 18.1876 5.93415 18.1874 6.03125C18.1874 7.28906 18.1075 8.19424 17.762 8.89906C16.9362 7.05053 14.9356 6.02811 11.9999 6.02811C10.2898 6.02811 8.81209 6.43824 7.72756 7.21359C7.08732 7.67135 6.60177 8.24275 6.27951 8.90805C5.89838 8.2167 5.81244 7.33399 5.81244 6.05191C5.81244 5.66514 5.52884 5.33316 5.15931 5.3134C5.06625 5.30853 4.97321 5.32349 4.88585 5.35736C4.79849 5.39124 4.71862 5.44333 4.65111 5.51047C4.5836 5.5776 4.52984 5.65839 4.49311 5.74791C4.45638 5.83744 4.43744 5.93384 4.43744 6.03125C4.43744 7.72166 4.54959 9.34334 5.83134 10.5967C5.81903 10.7482 5.81272 10.9024 5.81244 11.0594V13.2246H3.08177C2.71181 13.2246 2.39427 13.522 2.3758 13.9087C2.37131 14.006 2.38578 14.1032 2.41832 14.1944C2.45086 14.2857 2.50079 14.369 2.56508 14.4395C2.62937 14.5099 2.70669 14.566 2.79233 14.6043C2.87797 14.6425 2.97016 14.6622 3.0633 14.6621H5.8133V15.375C5.81266 16.2015 5.96424 17.0203 6.25974 17.7869C5.15673 18.8178 4.44517 19.957 4.43744 21.8141C4.43744 22.2067 4.72189 22.5463 5.09744 22.5621C5.18997 22.5659 5.2823 22.5502 5.36889 22.5159C5.45547 22.4815 5.53452 22.4292 5.60129 22.3621C5.66807 22.295 5.72119 22.2146 5.75748 22.1255C5.79376 22.0364 5.81245 21.9406 5.81244 21.8438C5.81244 20.6012 6.20345 19.8353 6.93693 19.0891C7.78275 20.3478 9.02897 21.2512 10.4531 21.638C10.5546 21.6654 10.6609 21.6682 10.7637 21.646C10.8664 21.6239 10.963 21.5775 11.0459 21.5103C11.1289 21.4432 11.196 21.357 11.2422 21.2586C11.2884 21.1601 11.3124 21.0519 11.3124 20.9422V9.64522C11.3124 9.25844 11.5969 8.92647 11.9669 8.90715C12.0598 8.90247 12.1527 8.91756 12.2399 8.95153C12.3271 8.98549 12.4068 9.03761 12.4742 9.10473C12.5416 9.17184 12.5952 9.25256 12.6319 9.342C12.6685 9.43143 12.6874 9.52771 12.6874 9.625V20.9422C12.6875 21.0519 12.7115 21.1601 12.7577 21.2586C12.8039 21.357 12.871 21.4432 12.954 21.5103C13.0369 21.5775 13.1335 21.6239 13.2362 21.646C13.339 21.6682 13.4452 21.6654 13.5468 21.638C14.9707 21.251 16.2167 20.3477 17.0625 19.0891C17.793 19.8321 18.1836 20.5949 18.187 21.8271C18.1855 22.013 18.2517 22.1925 18.3722 22.3291C18.4927 22.4657 18.6585 22.5491 18.8358 22.5625C18.9294 22.5681 19.023 22.5536 19.111 22.52C19.1989 22.4864 19.2794 22.4343 19.3475 22.367C19.4155 22.2997 19.4697 22.2186 19.5066 22.1286C19.5436 22.0386 19.5626 21.9417 19.5624 21.8438C19.5624 19.9714 18.8492 18.8237 17.741 17.7869C18.0365 17.0203 18.1881 16.2015 18.1874 15.375V14.6621H20.9374C21.0306 14.6622 21.1228 14.6425 21.2084 14.6043C21.2941 14.566 21.3714 14.5099 21.4357 14.4395C21.4999 14.369 21.5499 14.2857 21.5824 14.1944C21.615 14.1032 21.6294 14.006 21.6249 13.9087C21.6069 13.522 21.2881 13.2246 20.9181 13.2246Z" fill="#A7A7A7"/>
<path d="M14.8096 5.67188L14.8233 5.67592C15.4064 5.84662 15.9005 5.20199 15.6053 4.64945C15.2486 3.97934 14.7271 3.421 14.0948 3.03213C13.4626 2.64326 12.7424 2.43798 12.0089 2.4375H11.9908C11.2498 2.43803 10.5227 2.64748 9.88606 3.0438C9.24941 3.44012 8.72679 4.00863 8.37327 4.68943C8.07936 5.25455 8.59413 5.90232 9.1828 5.71635C10.0297 5.44682 10.9785 5.30936 11.9998 5.30936C13.0349 5.30936 13.9803 5.43154 14.8096 5.67188Z" fill="#A7A7A7"/>
</svg>
