<svg width="24" height="24" viewBox="0 0 24 24" fill="none" xmlns="http://www.w3.org/2000/svg">
<path d="M12.2132 3.75573L13.0465 4.58899L6.10263 11.5328L5.26937 10.6996L12.2132 3.75573Z" fill="#2AA7EE"/>
<path d="M17.764 9.30652C18.9314 7.99539 18.8864 5.98488 17.6291 4.72761C16.3719 3.47034 14.3614 3.42539 13.0502 4.59275L12.2159 3.75844C13.9883 2.13149 16.7448 2.1768 18.4624 3.89435C20.1799 5.61191 20.2252 8.36846 18.5983 10.1408L17.764 9.30652Z" fill="#2AA7EE"/>
<path d="M13.3242 18.7544C11.33 20.7486 8.09682 20.7486 6.10263 18.7544C4.10845 16.7602 4.10845 13.527 6.10263 11.5328L5.26937 10.6996C2.81499 13.1539 2.81499 17.1333 5.26937 19.5876C7.72375 22.042 11.7031 22.042 14.1575 19.5876L13.3242 18.7544Z" fill="#2AA7EE"/>
<path d="M13.8797 7.08876L14.713 7.92202L9.15792 13.4771L8.32466 12.6438L13.8797 7.08876Z" fill="#2AA7EE"/>
<path d="M11.3799 15.6991C10.7663 16.3127 9.77151 16.3127 9.15792 15.6991C8.54432 15.0855 8.54432 14.0907 9.15792 13.4771L8.32466 12.6438C7.25086 13.7176 7.25086 15.4586 8.32466 16.5324C9.39845 17.6062 11.1394 17.6062 12.2132 16.5324L11.3799 15.6991Z" fill="#2AA7EE"/>
<path d="M17.7683 9.31079L18.6015 10.144L12.2132 16.5324L11.3799 15.6991L17.7683 9.31079Z" fill="#2AA7EE"/>
<path d="M19.4348 12.6438L20.268 13.4771L14.1575 19.5876L13.3242 18.7544L19.4348 12.6438Z" fill="#2AA7EE"/>
</svg>
