<svg width="32" height="32" viewBox="0 0 32 32" fill="none" xmlns="http://www.w3.org/2000/svg">
<path d="M22 11.0004C23.6569 11.0004 25 12.3435 25 14.0004V24.0004C24.9999 25.6571 23.6568 27.0004 22 27.0004H10C8.34321 27.0004 7.00011 25.6571 7 24.0004V14.0004C7 12.3435 8.34315 11.0004 10 11.0004H15.25V18.2504C15.2502 18.6643 15.586 19.0003 16 19.0004C16.414 19.0003 16.7498 18.6644 16.75 18.2504V11.0004H22ZM15.1572 4.83631C15.6667 4.36989 16.4737 4.40358 16.9404 4.93689L20.0645 8.50623C20.337 8.81783 20.3055 9.29205 19.9941 9.56482C19.6825 9.83723 19.2083 9.80587 18.9355 9.49451L16.75 6.99549V11.0004H15.25V6.99549L13.0645 9.49451C12.7917 9.80579 12.3174 9.83735 12.0059 9.56482C11.6944 9.29212 11.6631 8.81789 11.9355 8.50623L15.0596 4.93689L15.1572 4.83631Z" fill="#252525"/>
</svg>
