<svg width="24" height="24" viewBox="0 0 24 24" fill="none" xmlns="http://www.w3.org/2000/svg">
<path d="M14 6.5C14 7.32843 14.6716 8 15.5 8H21V16C21 17.1046 20.1046 18 19 18H17V12.8193C17 12.0228 16.6828 11.259 16.1191 10.6963L11.292 5.87695C10.7296 5.31554 9.9675 5.00007 9.17285 5H8V3C8 1.89543 8.89543 1 10 1H14V6.5ZM15 1.18164C15.2155 1.27969 15.4152 1.41449 15.5859 1.58496L20.4131 6.40332C20.5869 6.57686 20.7235 6.7802 20.8223 7H15.5C15.2239 7 15 6.77614 15 6.5V1.18164Z" fill="#3E58EB"/>
<path d="M9 6V11.5C9 12.3284 9.67157 13 10.5 13H16V21C16 22.1046 15.1046 23 14 23H5C3.89543 23 3 22.1046 3 21V8C3 6.89543 3.89543 6 5 6H9ZM10 6.18164C10.2155 6.27969 10.4152 6.41449 10.5859 6.58496L15.4131 11.4033C15.5869 11.5769 15.7235 11.7802 15.8223 12H10.5C10.2239 12 10 11.7761 10 11.5V6.18164Z" fill="#3E58EB"/>
</svg>
