<svg width="56" height="56" viewBox="0 0 56 56" fill="none" xmlns="http://www.w3.org/2000/svg">
<rect width="56" height="56" rx="28" fill="black" fill-opacity="0.05"/>
<rect x="16.75" y="16.75" width="9.5" height="9.5" rx="1.25" stroke="#252525" stroke-width="1.5"/>
<rect x="16.75" y="29.75" width="9.5" height="9.5" rx="1.25" stroke="#252525" stroke-width="1.5"/>
<rect x="19.75" y="32.75" width="3.5" height="3.5" rx="0.5" fill="#252525"/>
<rect x="29" y="29" width="3.5" height="3.5" rx="0.5" fill="#252525"/>
<rect x="32.75" y="32.75" width="3.5" height="3.5" rx="0.5" fill="#252525"/>
<rect x="29" y="36.5" width="3.5" height="3.5" rx="0.5" fill="#252525"/>
<rect x="36.5" y="29" width="3.5" height="3.5" rx="0.5" fill="#252525"/>
<rect x="36.5" y="36.5" width="3.5" height="3.5" rx="0.5" fill="#252525"/>
<rect x="29.75" y="16.75" width="9.5" height="9.5" rx="1.25" stroke="#252525" stroke-width="1.5"/>
<rect x="32.75" y="19.75" width="3.5" height="3.5" rx="0.5" fill="#252525"/>
<rect x="19.75" y="19.75" width="3.5" height="3.5" rx="0.5" fill="#252525"/>
</svg>
