<svg width="40" height="40" viewBox="0 0 40 40" fill="none" xmlns="http://www.w3.org/2000/svg">
<path d="M31 20.5023C31 21.008 30.59 21.418 30.0843 21.418L17.248 21.418C16.7423 21.418 16.3323 21.008 16.3323 20.5023V20.5023C16.3323 19.9966 16.7423 19.5866 17.248 19.5866L30.0843 19.5866C30.59 19.5866 31 19.9966 31 20.5023V20.5023Z" fill="#AB50CC"/>
<path d="M31 27.8343C31 28.34 30.59 28.75 30.0843 28.75L17.248 28.75C16.7423 28.75 16.3323 28.34 16.3323 27.8343V27.8343C16.3323 27.3286 16.7423 26.9186 17.248 26.9186L30.0843 26.9186C30.59 26.9186 31 27.3286 31 27.8343V27.8343Z" fill="#AB50CC"/>
<path d="M31 13.1663C31 13.6721 30.59 14.082 30.0843 14.082L17.248 14.082C16.7423 14.082 16.3323 13.6721 16.3323 13.1663V13.1663C16.3323 12.6606 16.7423 12.2507 17.248 12.2507L30.0843 12.2507C30.59 12.2507 31 12.6606 31 13.1663V13.1663Z" fill="#AB50CC"/>
<circle cx="10.8345" cy="27.8306" r="1.83346" transform="rotate(-180 10.8345 27.8306)" fill="#AB50CC"/>
<circle cx="10.8345" cy="20.4986" r="1.83346" transform="rotate(-180 10.8345 20.4986)" fill="#AB50CC"/>
<circle cx="10.8345" cy="13.1665" r="1.83346" transform="rotate(-180 10.8345 13.1665)" fill="#AB50CC"/>
</svg>
