<svg width="24" height="24" viewBox="0 0 24 24" fill="none" xmlns="http://www.w3.org/2000/svg">
<path d="M12.0206 3C11.7377 3 11.4982 3.20361 11.4298 3.47813C10.95 5.40555 9.539 7.70512 7.03125 9.58594C5.85656 10.4721 4.66375 11.0865 3.48469 11.4131C3.20442 11.4907 3 11.7394 3 12.0303C3 12.3149 3.19581 12.5604 3.46911 12.6398C5.95281 13.3613 8.34839 15.0724 9.91406 17.3438C10.6496 18.4062 11.1536 19.4509 11.4261 20.5243C11.4956 20.7982 11.7359 21 12.0185 21C12.3055 21 12.548 20.7922 12.6166 20.5136C13.1659 18.2796 14.9112 15.8882 17.2266 14.25C18.2952 13.4896 19.3999 12.9454 20.5249 12.6333C20.8003 12.5569 21 12.3119 21 12.0261C21 11.7379 20.7969 11.4917 20.5197 11.4131C18.0353 10.7089 15.2835 8.52748 13.875 6.30469C13.2435 5.29829 12.8281 4.35835 12.6146 3.48487C12.5468 3.20764 12.306 3 12.0206 3Z" fill="#A7A7A7"/>
</svg>
