<svg width="24" height="24" viewBox="0 0 24 24" fill="none" xmlns="http://www.w3.org/2000/svg">
<path d="M2 8V5C2 3.34315 3.34315 2 5 2H8" stroke="#252525" stroke-width="1.5" stroke-linecap="round"/>
<path d="M2 16V19C2 20.6569 3.34315 22 5 22H8" stroke="#252525" stroke-width="1.5" stroke-linecap="round"/>
<path d="M22 8V5C22 3.34315 20.6569 2 19 2L16 2" stroke="#252525" stroke-width="1.5" stroke-linecap="round"/>
<path d="M22 16V19C22 20.6569 20.6569 22 19 22H16" stroke="#252525" stroke-width="1.5" stroke-linecap="round"/>
<path d="M15.004 15.4375C15.3146 15.1636 15.7886 15.1934 16.0626 15.5039C16.3365 15.8145 16.3067 16.2885 15.9962 16.5625C13.7626 18.5332 10.4253 18.5805 8.13684 16.6738L8.01965 16.5762C7.70162 16.311 7.65883 15.8377 7.92395 15.5195C8.18916 15.2016 8.66247 15.1587 8.98059 15.4238L9.0968 15.5215C10.8167 16.9546 13.3253 16.9187 15.004 15.4375ZM12.2501 7.75C12.6643 7.75007 13.0001 8.08583 13.0001 8.5V11.5361C12.9999 12.6405 12.1045 13.5361 11.0001 13.5361C10.586 13.5361 10.2503 13.2002 10.2501 12.7861C10.2501 12.3719 10.5859 12.0361 11.0001 12.0361C11.2761 12.0361 11.4999 11.812 11.5001 11.5361V8.5C11.5001 8.08579 11.8359 7.75 12.2501 7.75ZM7.75012 7.5C8.16428 7.50007 8.50012 7.83583 8.50012 8.25V9.75C8.50012 10.1642 8.16428 10.4999 7.75012 10.5C7.33591 10.5 7.00012 10.1642 7.00012 9.75V8.25C7.00012 7.83579 7.33591 7.5 7.75012 7.5ZM16.2501 7.5C16.6643 7.50007 17.0001 7.83583 17.0001 8.25V9.75C17.0001 10.1642 16.6643 10.4999 16.2501 10.5C15.8359 10.5 15.5001 10.1642 15.5001 9.75V8.25C15.5001 7.83579 15.8359 7.5 16.2501 7.5Z" fill="#252525"/>
</svg>
