<svg width="24" height="24" viewBox="0 0 24 24" fill="none" xmlns="http://www.w3.org/2000/svg">
<path d="M14.5715 2.57129C16.9716 2.57129 18.1724 2.57099 19.0891 3.03809C19.8954 3.44897 20.5513 4.1048 20.9622 4.91113C21.4293 5.82788 21.429 7.02858 21.429 9.42871V14.5713C21.429 16.9713 21.4292 18.1721 20.9622 19.0889C20.5514 19.895 19.8952 20.5501 19.0891 20.9609C18.1724 21.428 16.9716 21.4287 14.5715 21.4287H9.42896C7.02887 21.4287 5.82812 21.428 4.91138 20.9609C4.10539 20.5501 3.45012 19.8949 3.03931 19.0889C2.57219 18.1721 2.57153 16.9715 2.57153 14.5713V9.42871C2.57153 7.02858 2.5722 5.82788 3.03931 4.91113C3.45017 4.10505 4.10526 3.44889 4.91138 3.03809C5.82811 2.57111 7.02897 2.57129 9.42896 2.57129H14.5715ZM9.42896 3.85742C8.20792 3.85742 7.36908 3.85805 6.71899 3.91113C6.08409 3.96301 5.74226 4.05785 5.49536 4.18359C4.93097 4.47117 4.47244 4.93076 4.18481 5.49512C4.05901 5.74202 3.96327 6.08371 3.91138 6.71875C3.8583 7.36881 3.85767 8.20776 3.85767 9.42871V14.5713C3.85767 15.4531 3.85984 16.1355 3.88013 16.6914L7.71509 12.8574L9.85767 15L14.1428 10.7139L20.1223 16.6924C20.1426 16.1363 20.1428 15.4536 20.1428 14.5713V9.42871C20.1428 8.20775 20.1422 7.36881 20.0891 6.71875C20.0372 6.08388 19.9424 5.74201 19.8167 5.49512C19.5291 4.93069 19.0695 4.47122 18.5051 4.18359C18.2583 4.05785 17.9163 3.96301 17.2815 3.91113C16.6315 3.85805 15.7924 3.85742 14.5715 3.85742H9.42896ZM9.13403 6.85742C10.0807 6.85748 10.8478 7.62461 10.8479 8.57129C10.8479 9.51803 10.0808 10.2861 9.13403 10.2861C8.18726 10.2861 7.41919 9.51806 7.41919 8.57129C7.41926 7.62458 8.18731 6.85742 9.13403 6.85742Z" fill="#5DD400"/>
</svg>
