<svg width="24" height="24" viewBox="0 0 24 24" fill="none" xmlns="http://www.w3.org/2000/svg">
<path d="M4.5 10C5.60457 10 6.5 10.8954 6.5 12C6.5 13.1046 5.60457 14 4.5 14C3.39543 14 2.5 13.1046 2.5 12C2.5 10.8954 3.39543 10 4.5 10ZM12 10C13.1046 10 14 10.8954 14 12C14 13.1046 13.1046 14 12 14C10.8954 14 10 13.1046 10 12C10 10.8954 10.8954 10 12 10ZM19.5 10C20.6046 10 21.5 10.8954 21.5 12C21.5 13.1046 20.6046 14 19.5 14C18.3954 14 17.5 13.1046 17.5 12C17.5 10.8954 18.3954 10 19.5 10Z" fill="#F55522"/>
</svg>
