<svg width="48" height="48" viewBox="0 0 48 48" fill="none" xmlns="http://www.w3.org/2000/svg">
<rect width="48" height="48" rx="24" fill="#FFB522"/>
<path fill-rule="evenodd" clip-rule="evenodd" d="M13.5303 34.5303C13.2374 34.2374 13.2442 33.7558 13.5455 33.4545L19.364 27.636L20.4246 28.6967L14.6061 34.5152C14.3049 34.8164 13.8232 34.8232 13.5303 34.5303Z" fill="white"/>
<path d="M15.7071 20.8067C15.3166 21.1972 15.3166 21.8304 15.7071 22.2209L25.7791 32.2929C26.1696 32.6834 26.8028 32.6834 27.1933 32.2929L28.2698 31.2164C28.4829 31.0034 28.5885 30.7057 28.5574 30.4061L28.17 26.6727C28.1359 26.3443 28.2661 26.0203 28.5178 25.8068L34.1721 21.0115C34.6179 20.6333 34.6458 19.9551 34.2324 19.5417L28.4582 13.7675C28.0449 13.3542 27.3667 13.382 26.9885 13.8278L22.192 19.4823C21.9784 19.734 21.6544 19.8641 21.3261 19.83L17.594 19.4426C17.2943 19.4115 16.9966 19.5172 16.7836 19.7302L15.7071 20.8067Z" fill="white"/>
</svg>
