<svg width="200" height="104" viewBox="0 0 200 104" fill="none" xmlns="http://www.w3.org/2000/svg">
<path opacity="0.1" d="M0 32C0 14.3269 14.3269 0 32 0H168C185.673 0 200 14.3269 200 32V104H0V32Z" fill="#0F3187"/>
<path d="M71.1234 48.4609C72.8279 48.4609 74.432 48.7689 75.9359 49.3848C77.4542 50.0007 78.7862 50.946 79.932 52.2207C81.0922 53.4954 81.9945 55.1211 82.6391 57.0977C83.2979 59.0599 83.6273 61.4017 83.6273 64.123V64.166C83.6273 67.5749 83.1189 70.5039 82.102 72.9531C81.0993 75.4023 79.6527 77.2786 77.7621 78.582C75.8858 79.8854 73.6299 80.5371 70.9945 80.5371C69.0896 80.5371 67.3637 80.1934 65.8168 79.5059C64.2842 78.8184 63.0095 77.8802 61.9926 76.6914C60.99 75.4883 60.324 74.1061 59.9945 72.5449L59.9516 72.3086H65.4301L65.516 72.502C65.8025 73.2038 66.1964 73.8197 66.6977 74.3496C67.199 74.8796 67.8148 75.2949 68.5453 75.5957C69.2758 75.8822 70.0993 76.0254 71.016 76.0254C72.6918 76.0254 74.0453 75.5456 75.0766 74.5859C76.1221 73.612 76.9027 72.3229 77.4184 70.7188C77.9483 69.1003 78.2419 67.3171 78.2992 65.3691C78.3135 65.1829 78.3207 64.9967 78.3207 64.8105C78.335 64.6243 78.3422 64.4382 78.3422 64.252L77.3754 59.1172C77.3754 57.9714 77.1033 56.9401 76.559 56.0234C76.0147 55.0924 75.2699 54.3548 74.3246 53.8105C73.3936 53.2663 72.348 52.9941 71.1879 52.9941C70.0421 52.9941 68.9965 53.2663 68.0512 53.8105C67.1059 54.3405 66.3539 55.0638 65.7953 55.9805C65.251 56.8828 64.9789 57.8926 64.9789 59.0098V59.0527C64.9789 60.2272 65.2439 61.2728 65.7738 62.1895C66.3038 63.0918 67.0342 63.8008 67.9652 64.3164C68.8962 64.832 69.949 65.0898 71.1234 65.0898C72.3122 65.0898 73.3793 64.8392 74.3246 64.3379C75.2699 63.8223 76.0147 63.1204 76.559 62.2324C77.1033 61.3301 77.3754 60.2988 77.3754 59.1387V59.1172H78.6859V64.3809H78.2348C77.8194 65.3262 77.2107 66.1712 76.4086 66.916C75.6065 67.6608 74.6397 68.2552 73.5082 68.6992C72.3767 69.1432 71.1091 69.3652 69.7055 69.3652C67.7146 69.3652 65.9529 68.9284 64.4203 68.0547C62.8878 67.181 61.6846 65.9779 60.8109 64.4453C59.9516 62.9128 59.5219 61.1797 59.5219 59.2461V59.2031C59.5219 57.112 60.0232 55.2643 61.0258 53.6602C62.0427 52.0417 63.4177 50.7741 65.1508 49.8574C66.8982 48.9264 68.8891 48.4609 71.1234 48.4609ZM90.1668 75.4883C89.2931 75.4883 88.5555 75.1875 87.9539 74.5859C87.3523 73.9844 87.0516 73.2539 87.0516 72.3945C87.0516 71.5208 87.3523 70.7832 87.9539 70.1816C88.5555 69.5801 89.2931 69.2793 90.1668 69.2793C91.0262 69.2793 91.7566 69.5801 92.3582 70.1816C92.9598 70.7832 93.2605 71.5208 93.2605 72.3945C93.2605 73.2539 92.9598 73.9844 92.3582 74.5859C91.7566 75.1875 91.0262 75.4883 90.1668 75.4883ZM90.1668 59.6973C89.2931 59.6973 88.5555 59.4036 87.9539 58.8164C87.3523 58.2148 87.0516 57.4772 87.0516 56.6035C87.0516 55.7298 87.3523 54.9993 87.9539 54.4121C88.5555 53.8105 89.2931 53.5098 90.1668 53.5098C91.0262 53.5098 91.7566 53.8105 92.3582 54.4121C92.9598 54.9993 93.2605 55.7298 93.2605 56.6035C93.2605 57.4772 92.9598 58.2148 92.3582 58.8164C91.7566 59.4036 91.0262 59.6973 90.1668 59.6973ZM111.917 80V74.0273H96.4484V69.3223C97.3078 67.9759 98.1672 66.6224 99.0266 65.2617C99.8859 63.901 100.745 62.5475 101.605 61.2012C102.464 59.8405 103.316 58.487 104.161 57.1406C105.021 55.7799 105.88 54.4264 106.739 53.0801C107.599 51.7194 108.458 50.3587 109.318 48.998H117.202V69.5156H121.392V74.0273H117.202V80H111.917ZM101.433 69.623H112.003V53.1875H111.874C111.172 54.276 110.471 55.3646 109.769 56.4531C109.081 57.5273 108.387 58.6087 107.685 59.6973C106.997 60.7858 106.303 61.8743 105.601 62.9629C104.899 64.0514 104.197 65.14 103.495 66.2285C102.808 67.3027 102.12 68.3841 101.433 69.4727V69.623ZM132.25 80V54.2617H132.121L124.107 59.7617V54.6914L132.207 48.998H137.685V80H132.25Z" fill="#A7B9E8"/>
<g opacity="0.5">
<rect x="78" y="12" width="44" height="12" rx="6" fill="#88A0DD"/>
</g>
</svg>
