<svg width="24" height="24" viewBox="0 0 24 24" fill="none" xmlns="http://www.w3.org/2000/svg">
<path d="M14.25 3.75C16.35 3.75 17.4 3.75056 18.2021 4.15918C18.9078 4.5187 19.4823 5.09224 19.8418 5.79785C20.2503 6.59997 20.25 7.65015 20.25 9.75V14.25C20.25 16.3499 20.2503 17.4 19.8418 18.2021C19.4823 18.9078 18.9078 19.4813 18.2021 19.8408C17.4 20.2494 16.35 20.25 14.25 20.25H9.75C7.64992 20.25 6.6 20.2495 5.79785 19.8408C5.09228 19.4813 4.51869 18.9077 4.15918 18.2021C3.83103 17.558 3.76566 16.7542 3.75293 15.375H4.87793C4.8826 15.8752 4.89484 16.2781 4.92285 16.6211C4.96824 17.1766 5.05112 17.4754 5.16113 17.6914C5.4128 18.1853 5.81467 18.5872 6.30859 18.8389C6.52464 18.9489 6.82325 19.0327 7.37891 19.0781C7.94774 19.1246 8.68153 19.125 9.75 19.125H14.25C15.3184 19.125 16.0523 19.1246 16.6211 19.0781C17.1768 19.0327 17.4763 18.949 17.6924 18.8389C18.1861 18.5872 18.5873 18.1852 18.8389 17.6914C18.9489 17.4754 19.0327 17.1767 19.0781 16.6211C19.1246 16.0523 19.125 15.3185 19.125 14.25V9.75C19.125 8.68153 19.1246 7.94775 19.0781 7.37891C19.0327 6.82331 18.9489 6.52464 18.8389 6.30859C18.5873 5.8148 18.1861 5.41281 17.6924 5.16113C17.4763 5.05105 17.1768 4.96728 16.6211 4.92188C16.0523 4.87544 15.3184 4.875 14.25 4.875H9.75C8.68153 4.875 7.94774 4.87541 7.37891 4.92188C6.82325 4.96727 6.52464 5.05107 6.30859 5.16113C5.81467 5.4128 5.4128 5.81467 5.16113 6.30859C5.05112 6.52463 4.96824 6.82342 4.92285 7.37891C4.89484 7.72191 4.8826 8.12485 4.87793 8.625H3.75293C3.76566 7.24582 3.83103 6.44198 4.15918 5.79785C4.51869 5.09227 5.09228 4.51871 5.79785 4.15918C6.6 3.75047 7.64992 3.75 9.75 3.75H14.25ZM11.04 8.04004C11.2597 7.82037 11.6153 7.82037 11.835 8.04004L15.7959 12L11.835 15.96C11.6153 16.1796 11.2597 16.1796 11.04 15.96C10.8204 15.7403 10.8204 15.3847 11.04 15.165L13.6416 12.5625H1.5V11.4375H13.6416L11.04 8.83496C10.8204 8.61529 10.8204 8.25971 11.04 8.04004Z" fill="#9B9B9B"/>
</svg>
