<svg width="24" height="24" viewBox="0 0 24 24" fill="none" xmlns="http://www.w3.org/2000/svg">
<path d="M12 2.5C12.4372 2.5 12.792 2.85477 12.792 3.29199V9.04492L15.6689 4.0625C15.8876 3.68403 16.3714 3.55398 16.75 3.77246C17.1286 3.99107 17.2587 4.47584 17.04 4.85449L14.1631 9.83594L19.1455 6.95996C19.5242 6.74135 20.0089 6.87135 20.2275 7.25C20.4461 7.62864 20.3161 8.11343 19.9375 8.33203L14.9561 11.208H20.708C21.1452 11.208 21.5 11.5628 21.5 12C21.5 12.4372 21.1452 12.792 20.708 12.792H14.9551L19.9375 15.6689C20.3159 15.8876 20.4459 16.3714 20.2275 16.75C20.0089 17.1286 19.5242 17.2587 19.1455 17.04L14.1631 14.1631L17.04 19.1455C17.2587 19.5242 17.1286 20.0089 16.75 20.2275C16.3714 20.446 15.8876 20.316 15.6689 19.9375L12.792 14.9541V20.708C12.792 21.1452 12.4372 21.5 12 21.5C11.5628 21.5 11.208 21.1452 11.208 20.708V14.9541L8.33105 19.9375C8.11241 20.3159 7.62856 20.446 7.25 20.2275C6.87135 20.0089 6.74135 19.5242 6.95996 19.1455L9.83691 14.1621L4.85449 17.04C4.47584 17.2587 3.99107 17.1286 3.77246 16.75C3.55404 16.3714 3.68402 15.8876 4.0625 15.6689L9.04492 12.792H3.29199C2.85479 12.792 2.50004 12.4372 2.5 12C2.5 11.5628 2.85477 11.208 3.29199 11.208H9.04395L4.0625 8.33203C3.68386 8.11342 3.55387 7.62864 3.77246 7.25C3.99107 6.87135 4.47584 6.74135 4.85449 6.95996L9.83691 9.83691L6.95996 4.85449C6.74135 4.47584 6.87135 3.99107 7.25 3.77246C7.62857 3.55399 8.11242 3.68404 8.33105 4.0625L11.208 9.04492V3.29199C11.208 2.85477 11.5628 2.50001 12 2.5Z" fill="#A7A7A7"/>
</svg>
