<svg width="24" height="24" viewBox="0 0 24 24" fill="none" xmlns="http://www.w3.org/2000/svg">
<path d="M12.6104 6.09961C13.0492 7.212 14.132 8 15.4004 8C15.7137 7.99994 16.0159 7.95148 16.2998 7.8623V11.0996H18.8994C19.3964 11.0997 19.7998 11.503 19.7998 12C19.7996 12.4968 19.3963 12.8993 18.8994 12.8994H14.5V8.875L12.2109 13.0703L15.2998 15.001V20C15.2995 20.4967 14.8971 20.8992 14.4004 20.8994C13.9035 20.8994 13.5003 20.4968 13.5 20V15.998L11.2998 14.623V17.8994H4.90039C4.40349 17.8994 4.00026 17.4968 4 17C4 16.5029 4.40333 16.0996 4.90039 16.0996H9.5V13L9.51465 12.9912L9.5 12.9883L9.49707 11.8984L11.7051 7.89941H9.87598L8.14355 10.4434C7.86383 10.8542 7.3044 10.9603 6.89355 10.6807C6.48285 10.4009 6.37656 9.84147 6.65625 9.43066L8.92383 6.09961H12.6104ZM15.3994 3C16.504 3 17.3994 3.89543 17.3994 5C17.3994 6.10457 16.504 7 15.3994 7C14.2948 7 13.3994 6.10457 13.3994 5C13.3994 3.89543 14.2948 3 15.3994 3Z" fill="#F55522"/>
</svg>
