<svg width="32" height="32" viewBox="0 0 32 32" fill="none" xmlns="http://www.w3.org/2000/svg">
  <!-- Square part at x=7, y=7, 18x18 -->
  <path d="M19 9H10C9.44772 9 9 9.44772 9 10V22C9 22.5523 9.44772 23 10 23H22C22.5523 23 23 22.5523 23 22V13L25 11V22L24.9961 22.1543C24.9184 23.6883 23.6883 24.9184 22.1543 24.9961L22 25H10C8.39489 25 7.08421 23.7394 7.00391 22.1543L7 22V10C7 8.34315 8.34315 7 10 7H21L19 9Z" fill="black"/>
  <!-- Pen part at x=13.5, y=5.04, scaled -->
  <path d="M25.0196 8.53813L15.9757 17.6006L13.9092 18.4747C13.7944 18.5221 13.6894 18.4982 13.5948 18.4034C13.5004 18.3018 13.4763 18.1933 13.5235 18.0782L14.4356 16.0664L23.4776 6.99614L25.0196 8.53813ZM25.1368 5.33403C25.5257 4.94396 26.1574 4.94167 26.5489 5.32914L26.6768 5.4561C27.0704 5.84563 27.0727 6.48099 26.6817 6.87309L25.7257 7.83012L24.1837 6.28813L25.1368 5.33403Z" fill="black"/>
</svg>
