<svg preserveAspectRatio="xMidYMid meet" width="24" height="24" overflow="visible" style="display: block;" viewBox="0 0 24 24" fill="none" xmlns="http://www.w3.org/2000/svg">
<g id="24/Subheading">
<g id="Aa">
<path id="Vector" d="M19.73 17.1318C19.227 17.1318 18.7754 17.0342 18.375 16.8389C17.9795 16.6436 17.667 16.3677 17.4375 16.0112C17.2129 15.6499 17.1006 15.2251 17.1006 14.7368V14.7222C17.1006 14.2485 17.2178 13.8408 17.4521 13.499C17.6865 13.1523 18.0308 12.8813 18.4849 12.686C18.939 12.4907 19.4907 12.376 20.1401 12.3418L23.0991 12.1587V13.3599L20.3965 13.5356C19.8838 13.5649 19.5054 13.6724 19.2612 13.8579C19.0171 14.0435 18.895 14.3022 18.895 14.6343V14.6489C18.895 14.9907 19.0244 15.2568 19.2832 15.4473C19.5469 15.6377 19.8813 15.7329 20.2866 15.7329C20.6528 15.7329 20.98 15.6597 21.2681 15.5132C21.5561 15.3667 21.7832 15.1689 21.9492 14.9199C22.1152 14.666 22.1982 14.3804 22.1982 14.063V11.5288C22.1982 11.1284 22.0713 10.8232 21.8174 10.6133C21.5635 10.3984 21.1875 10.291 20.6894 10.291C20.2744 10.291 19.9351 10.3643 19.6714 10.5107C19.4077 10.6523 19.2295 10.855 19.1367 11.1187L19.1294 11.1479H17.4082L17.4155 11.082C17.4741 10.6328 17.6499 10.2397 17.9429 9.90283C18.2358 9.56592 18.624 9.30469 19.1074 9.11914C19.5908 8.93359 20.1475 8.84082 20.7773 8.84082C21.4707 8.84082 22.0566 8.94824 22.5352 9.16309C23.0137 9.37305 23.3774 9.68066 23.6265 10.0859C23.8755 10.4863 24 10.9673 24 11.5288V17H22.1982V15.9014H22.0737C21.9272 16.1553 21.7368 16.375 21.5024 16.5605C21.2729 16.7461 21.0093 16.8877 20.7114 16.9854C20.4136 17.083 20.0864 17.1318 19.73 17.1318Z" fill="black"/>
<path id="Vector_2" d="M6.63257 17L10.3826 6.43115H11.95V8.39404H11.386L8.61011 17H6.63257ZM8.52222 14.2681L9.01294 12.8105H13.8616L14.3523 14.2681H8.52222ZM14.2864 17L11.5105 8.39404V6.43115H12.5066L16.2639 17H14.2864Z" fill="black"/>
</g>
<path id="Vector 536" d="M0.5 9.5L3.5 12.5L0.5 15.5" stroke="black" stroke-linecap="round"/>
</g>
</svg>
