<svg width="32" height="32" viewBox="0 0 32 32" fill="none" xmlns="http://www.w3.org/2000/svg">
<path d="M7 19.25C7.41421 19.25 7.75 19.5858 7.75 20V22C7.75 23.2426 8.75736 24.25 10 24.25H12C12.4142 24.25 12.75 24.5858 12.75 25C12.75 25.4142 12.4142 25.75 12 25.75H10C7.92893 25.75 6.25 24.0711 6.25 22V20C6.25 19.5858 6.58579 19.25 7 19.25ZM25 19.25C25.4142 19.25 25.75 19.5858 25.75 20V22C25.75 24.0711 24.0711 25.75 22 25.75H20C19.5858 25.75 19.25 25.4142 19.25 25C19.25 24.5858 19.5858 24.25 20 24.25H22C23.2426 24.25 24.25 23.2426 24.25 22V20C24.25 19.5858 24.5858 19.25 25 19.25ZM16 11.5C18.4853 11.5 20.5 13.5147 20.5 16C20.5 18.4853 18.4853 20.5 16 20.5C13.5147 20.5 11.5 18.4853 11.5 16C11.5 13.5147 13.5147 11.5 16 11.5ZM16 13C14.3431 13 13 14.3431 13 16C13 17.6569 14.3431 19 16 19C17.6569 19 19 17.6569 19 16C19 14.3431 17.6569 13 16 13ZM12 6.25C12.4142 6.25 12.75 6.58579 12.75 7C12.75 7.41421 12.4142 7.75 12 7.75H10C8.75736 7.75 7.75 8.75736 7.75 10V12C7.75 12.4142 7.41421 12.75 7 12.75C6.58579 12.75 6.25 12.4142 6.25 12V10C6.25 7.92893 7.92893 6.25 10 6.25H12ZM23 7C24.1046 7 25 7.89543 25 9C25 10.1046 24.1046 11 23 11C21.8954 11 21 10.1046 21 9C21 7.89543 21.8954 7 23 7Z" fill="#F3F3F3"/>
</svg>
