<svg width="24" height="24" viewBox="0 0 24 24" fill="none" xmlns="http://www.w3.org/2000/svg">
<path d="M22 5C22 3.34315 20.6569 2 19 2H10C8.34315 2 7 3.34315 7 5V6H14C16.2091 6 18 7.79086 18 10V17H19C20.6569 17 22 15.6569 22 14V5Z" fill="#5DD400"/>
<rect x="2.46875" y="7.53125" width="14" height="14" rx="3" stroke="#5DD400"/>
<path d="M14.5001 8.00027C15.6044 8.00036 16.4999 8.89595 16.5001 10.0003V19.0003L12.0714 14.1292C11.7679 13.7955 11.2409 13.8034 10.9474 14.1458L9.02744 16.386C8.74312 16.7177 8.23577 16.7369 7.92685 16.428L7.03036 15.5305C6.73757 15.238 6.26268 15.2381 5.96982 15.5305L2.50009 19.0003V10.0003C2.50032 8.8959 3.39566 8.00027 4.50009 8.00027H14.5001ZM7.00009 10.3343C6.07972 10.3343 5.33327 11.0799 5.3331 12.0003C5.3331 12.9207 6.07962 13.6673 7.00009 13.6673C7.92047 13.6672 8.66611 12.9207 8.66611 12.0003C8.66594 11.08 7.92037 10.3344 7.00009 10.3343Z" fill="#5DD400"/>
</svg>
