<svg width="18" height="18" viewBox="0 0 18 18" fill="none" xmlns="http://www.w3.org/2000/svg">
<path d="M10.9463 14.4258C10.9166 14.7218 10.815 14.9972 10.6416 15.251C10.4724 15.5047 10.2453 15.7097 9.96191 15.8662C9.67848 16.0226 9.35661 16.1016 8.99707 16.1016C8.6418 16.1015 8.32246 16.0227 8.03906 15.8662C7.75566 15.7097 7.52699 15.5047 7.35352 15.251C7.1801 14.9972 7.08014 14.7218 7.05469 14.4258H10.9463ZM14.1904 13.5459C14.1395 13.5506 14.0866 13.5557 14.0312 13.5557H3.96973C3.66965 13.5556 3.43479 13.4861 3.26562 13.3467C3.09647 13.2071 3.01184 13.0206 3.01172 12.7881C3.01172 12.5766 3.07268 12.3707 3.19531 12.1719C3.31798 11.9731 3.47048 11.7782 3.65234 11.5879C3.83854 11.3975 4.02311 11.207 4.20508 11.0166C4.34461 10.8728 4.45216 10.6846 4.52832 10.4521C4.60872 10.2194 4.66797 9.97133 4.70605 9.70898C4.74414 9.44661 4.77214 9.19271 4.78906 8.94727C4.80176 8.13482 4.88804 7.4111 5.04883 6.77637C5.20964 6.1416 5.46191 5.6084 5.80469 5.17676C5.80717 5.17367 5.80903 5.17007 5.81152 5.16699L14.1904 13.5459ZM8.99805 2.73926C9.46756 2.73936 9.86144 2.88324 10.1787 3.1709C10.4959 3.45861 10.7136 3.81001 10.832 4.22461C11.3949 4.42773 11.8477 4.74512 12.1904 5.17676C12.5332 5.6084 12.7855 6.1416 12.9463 6.77637C13.1113 7.4111 13.2002 8.13482 13.2129 8.94727C13.2298 9.1927 13.2568 9.44663 13.2949 9.70898C13.333 9.97135 13.3906 10.2194 13.4668 10.4521C13.5472 10.6846 13.6573 10.8728 13.7969 11.0166L14.3428 11.5879C14.5289 11.7782 14.683 11.9731 14.8057 12.1719C14.9284 12.3708 14.9902 12.5765 14.9902 12.7881C14.9902 12.8336 14.984 12.877 14.9775 12.9189L6.56836 4.50977C6.75282 4.39791 6.95357 4.30269 7.16992 4.22461C7.28842 3.80995 7.50589 3.45863 7.82324 3.1709C8.14062 2.88314 8.53255 2.73926 8.99805 2.73926Z" fill="#A7A7A7"/>
<path fill-rule="evenodd" clip-rule="evenodd" d="M2.64645 2.70895C2.84171 2.51368 3.15829 2.51368 3.35355 2.70895L15.3536 14.7089C15.5488 14.9042 15.5488 15.2208 15.3536 15.4161C15.1583 15.6113 14.8417 15.6113 14.6464 15.4161L2.64645 3.41605C2.45118 3.22079 2.45118 2.90421 2.64645 2.70895Z" fill="#A7A7A7"/>
</svg>
