<svg width="12" height="12" viewBox="0 0 12 12" fill="none" xmlns="http://www.w3.org/2000/svg">
<path d="M6 1C8.76142 1 11 3.23858 11 6C11 8.76142 8.76142 11 6 11C3.23858 11 1 8.76142 1 6C1 3.23858 3.23858 1 6 1ZM6 2C3.79086 2 2 3.79086 2 6C2 8.20914 3.79086 10 6 10C8.20914 10 10 8.20914 10 6C10 3.79086 8.20914 2 6 2ZM6 7.5C6.41421 7.5 6.75 7.83579 6.75 8.25C6.75 8.66421 6.41421 9 6 9C5.58579 9 5.25 8.66421 5.25 8.25C5.25 7.83579 5.58579 7.5 6 7.5ZM6.5625 7H5.4375L5.25 3H6.75L6.5625 7Z" fill="#A7A7A7"/>
</svg>
