<svg width="32" height="32" viewBox="0 0 32 32" fill="none" xmlns="http://www.w3.org/2000/svg">
<g clip-path="url(#clip0_19110_18551)">
<path d="M19.6377 16.0098C19.6377 16.7474 19.4837 17.3883 19.1758 17.9326C18.8678 18.4805 18.4256 18.9048 17.8491 19.2056C17.2762 19.5099 16.5905 19.6621 15.792 19.6621H14.4653C14.2684 19.6621 14.1055 19.5959 13.9766 19.4634C13.8477 19.3345 13.7832 19.1769 13.7832 18.9907C13.7832 18.8045 13.8477 18.647 13.9766 18.5181C14.1055 18.3892 14.2684 18.3247 14.4653 18.3247H15.7275C16.279 18.3247 16.7463 18.2227 17.1294 18.0186C17.5161 17.8145 17.8097 17.5369 18.0103 17.186C18.2144 16.8315 18.3164 16.4251 18.3164 15.9668C18.3164 15.5156 18.2144 15.1146 18.0103 14.7637C17.8097 14.4128 17.5161 14.1388 17.1294 13.9419C16.7463 13.745 16.279 13.6465 15.7275 13.6465H12.5049L10.5928 13.5605L10.813 13.2061L12.1665 14.334L13.4233 15.5586C13.4806 15.6195 13.5272 15.6875 13.563 15.7627C13.6024 15.8379 13.6221 15.9256 13.6221 16.0259C13.6221 16.2121 13.5612 16.366 13.4395 16.4878C13.3213 16.6095 13.1637 16.6704 12.9668 16.6704C12.7878 16.6704 12.6284 16.6006 12.4888 16.4609L9.45947 13.4692C9.39144 13.4084 9.33952 13.335 9.30371 13.249C9.2679 13.1595 9.25 13.07 9.25 12.9805C9.25 12.8874 9.2679 12.7979 9.30371 12.7119C9.33952 12.6224 9.39144 12.5454 9.45947 12.481L12.4888 9.48926C12.6284 9.35319 12.7878 9.28516 12.9668 9.28516C13.1637 9.28516 13.3213 9.34603 13.4395 9.46777C13.5612 9.58594 13.6221 9.73812 13.6221 9.92432C13.6221 10.0246 13.6024 10.1141 13.563 10.1929C13.5272 10.2681 13.4806 10.3361 13.4233 10.397L12.1665 11.6216L10.813 12.7495L10.5928 12.395L12.5049 12.3091H15.7275C16.5368 12.3091 17.2332 12.4648 17.8169 12.7764C18.4041 13.0879 18.8535 13.5229 19.165 14.0815C19.4801 14.6366 19.6377 15.2793 19.6377 16.0098Z" fill="#A7A7A7"/>
<path d="M15 4C21.0751 4 26 8.92487 26 15C26 15.9074 25.8869 16.7883 25.6797 17.6318C25.2337 17.4088 24.7566 17.2395 24.2559 17.1328C24.4133 16.447 24.5 15.7336 24.5 15C24.5 9.75329 20.2467 5.5 15 5.5C9.75329 5.5 5.5 9.75329 5.5 15C5.5 20.2467 9.75329 24.5 15 24.5C15.7336 24.5 16.447 24.4133 17.1328 24.2559C17.2395 24.7566 17.4088 25.2337 17.6318 25.6797C16.7883 25.8869 15.9074 26 15 26C8.92487 26 4 21.0751 4 15C4 8.92487 8.92487 4 15 4Z" fill="#A7A7A7"/>
<path d="M23 18C25.7614 18 28 20.2386 28 23C28 25.7614 25.7614 28 23 28C20.2386 28 18 25.7614 18 23C18 20.2386 20.2386 18 23 18ZM20.25 22.25C19.8358 22.25 19.5 22.5858 19.5 23C19.5 23.4142 19.8358 23.75 20.25 23.75C20.6642 23.75 21 23.4142 21 23C21 22.5858 20.6642 22.25 20.25 22.25ZM23 22.25C22.5858 22.25 22.25 22.5858 22.25 23C22.25 23.4142 22.5858 23.75 23 23.75C23.4142 23.75 23.75 23.4142 23.75 23C23.75 22.5858 23.4142 22.25 23 22.25ZM25.75 22.25C25.3358 22.25 25 22.5858 25 23C25 23.4142 25.3358 23.75 25.75 23.75C26.1642 23.75 26.5 23.4142 26.5 23C26.5 22.5858 26.1642 22.25 25.75 22.25Z" fill="#A7A7A7"/>
</g>
<defs>
<clipPath id="clip0_19110_18551">
<rect width="24" height="24" fill="white" transform="translate(4 4)"/>
</clipPath>
</defs>
</svg>
