<svg width="24" height="24" viewBox="0 0 24 24" fill="none" xmlns="http://www.w3.org/2000/svg">
<path d="M21 12.0009C21 12.4146 20.6646 12.75 20.2509 12.75L9.74914 12.75C9.3354 12.75 9 12.4146 9 12.0009C9 11.5871 9.3354 11.2517 9.74914 11.2517L20.2509 11.2517C20.6646 11.2517 21 11.5871 21 12.0009Z" fill="#AB50CC"/>
<path d="M21 18.0009C21 18.4146 20.6646 18.75 20.2509 18.75L9.74914 18.75C9.3354 18.75 9 18.4146 9 18.0009C9 17.5871 9.3354 17.2517 9.74914 17.2517L20.2509 17.2517C20.6646 17.2517 21 17.5871 21 18.0009Z" fill="#AB50CC"/>
<path d="M21 6.00086C21 6.4146 20.6646 6.75 20.2509 6.75L9.74914 6.75C9.3354 6.75 9 6.4146 9 6.00086C9 5.58712 9.3354 5.25172 9.74914 5.25172L20.2509 5.25172C20.6646 5.25172 21 5.58712 21 6.00086Z" fill="#AB50CC"/>
<circle cx="4.5" cy="18" r="1.5" transform="rotate(-180 4.5 18)" fill="#AB50CC"/>
<circle cx="4.5" cy="12" r="1.5" transform="rotate(-180 4.5 12)" fill="#AB50CC"/>
<circle cx="4.5" cy="6" r="1.5" transform="rotate(-180 4.5 6)" fill="#AB50CC"/>
</svg>
