<svg width="24" height="24" viewBox="0 0 24 24" fill="none" xmlns="http://www.w3.org/2000/svg">
<path d="M12.0206 3.936C11.74 3.936 11.5034 3.84267 11.3109 3.656C11.1183 3.464 11.022 3.23467 11.022 2.968C11.022 2.70133 11.1183 2.47467 11.3109 2.288C11.5089 2.096 11.7455 2 12.0206 2C12.2957 2 12.5296 2.096 12.7221 2.288C12.9147 2.47467 13.011 2.70133 13.011 2.968C13.011 3.24 12.9147 3.46933 12.7221 3.656C12.5351 3.84267 12.3012 3.936 12.0206 3.936ZM8.00138 6.176C7.72627 6.176 7.48968 6.08267 7.29161 5.896C7.09904 5.704 7.00275 5.47467 7.00275 5.208C7.00275 4.94667 7.10179 4.72 7.29986 4.528C7.49794 4.336 7.73177 4.24 8.00138 4.24C8.28198 4.24 8.51857 4.336 8.71114 4.528C8.90371 4.71467 9 4.94133 9 5.208C9 5.48 8.90371 5.70933 8.71114 5.896C8.52407 6.08267 8.28748 6.176 8.00138 6.176ZM16.0234 6.176C15.7483 6.176 15.5117 6.08267 15.3136 5.896C15.121 5.704 15.0248 5.47467 15.0248 5.208C15.0248 4.94667 15.1238 4.72 15.3219 4.528C15.5199 4.336 15.7538 4.24 16.0234 4.24C16.304 4.24 16.5406 4.336 16.7331 4.528C16.9312 4.71467 17.0303 4.94133 17.0303 5.208C17.0303 5.48 16.934 5.70933 16.7414 5.896C16.5488 6.08267 16.3095 6.176 16.0234 6.176ZM3.99037 8.448C3.71527 8.448 3.48143 8.35467 3.28886 8.168C3.09629 7.976 3 7.74667 3 7.48C3 7.21867 3.09629 6.99467 3.28886 6.808C3.48693 6.616 3.72077 6.52 3.99037 6.52C4.27098 6.52 4.50757 6.61333 4.70014 6.8C4.89271 6.98667 4.989 7.21333 4.989 7.48C4.989 7.75733 4.89271 7.98933 4.70014 8.176C4.51307 8.35733 4.27648 8.448 3.99037 8.448ZM12.0206 8.76C11.652 8.76 11.3384 8.63467 11.0798 8.384C10.8212 8.13333 10.6919 7.832 10.6919 7.48C10.6919 7.13333 10.8212 6.83467 11.0798 6.584C11.3439 6.328 11.6575 6.2 12.0206 6.2C12.3838 6.2 12.6919 6.328 12.945 6.584C13.2036 6.83467 13.3329 7.13333 13.3329 7.48C13.3329 7.83733 13.2036 8.14133 12.945 8.392C12.6919 8.63733 12.3838 8.76 12.0206 8.76ZM20.0096 8.448C19.7345 8.448 19.4979 8.35467 19.2999 8.168C19.1073 7.98133 19.011 7.752 19.011 7.48C19.011 7.21867 19.11 6.99467 19.3081 6.808C19.5062 6.616 19.74 6.52 20.0096 6.52C20.2847 6.52 20.5186 6.61333 20.7111 6.8C20.9037 6.98667 21 7.21333 21 7.48C21 7.752 20.9037 7.98133 20.7111 8.168C20.5241 8.35467 20.2902 8.448 20.0096 8.448ZM8.00138 11.016C7.63824 11.016 7.32737 10.8907 7.06878 10.64C6.81018 10.3893 6.68088 10.088 6.68088 9.736C6.68088 9.38933 6.81018 9.09067 7.06878 8.84C7.33287 8.584 7.64374 8.456 8.00138 8.456C8.36451 8.456 8.67538 8.58133 8.93398 8.832C9.19807 9.08267 9.33012 9.384 9.33012 9.736C9.33012 10.0987 9.20083 10.4027 8.94223 10.648C8.68363 10.8933 8.37001 11.016 8.00138 11.016ZM16.0234 11.016C15.6602 11.016 15.3494 10.8933 15.0908 10.648C14.8377 10.3973 14.7111 10.0933 14.7111 9.736C14.7111 9.38933 14.8404 9.09067 15.099 8.84C15.3576 8.584 15.6657 8.456 16.0234 8.456C16.392 8.456 16.7056 8.58133 16.9642 8.832C17.2228 9.08267 17.3521 9.384 17.3521 9.736C17.3521 10.0987 17.2228 10.4027 16.9642 10.648C16.7111 10.8933 16.3975 11.016 16.0234 11.016ZM3.99037 12.968C3.71527 12.968 3.48143 12.8747 3.28886 12.688C3.09629 12.496 3 12.2667 3 12C3 11.7333 3.09629 11.5067 3.28886 11.32C3.48693 11.128 3.72077 11.032 3.99037 11.032C4.27098 11.032 4.50757 11.128 4.70014 11.32C4.89271 11.5067 4.989 11.7333 4.989 12C4.989 12.272 4.89271 12.5013 4.70014 12.688C4.50757 12.8747 4.27098 12.968 3.99037 12.968ZM12.0206 13.496C11.7345 13.496 11.4759 13.4293 11.2448 13.296C11.0138 13.1573 10.8267 12.976 10.6836 12.752C10.5461 12.5227 10.4773 12.272 10.4773 12C10.4773 11.728 10.5461 11.48 10.6836 11.256C10.8267 11.0267 11.0138 10.8453 11.2448 10.712C11.4759 10.5733 11.7345 10.504 12.0206 10.504C12.3012 10.504 12.5571 10.5733 12.7882 10.712C13.0193 10.8453 13.2036 11.0267 13.3411 11.256C13.4842 11.48 13.5557 11.728 13.5557 12C13.5557 12.416 13.4044 12.7707 13.1018 13.064C12.8047 13.352 12.4443 13.496 12.0206 13.496ZM20.0096 12.968C19.7345 12.968 19.4979 12.8747 19.2999 12.688C19.1073 12.496 19.011 12.2667 19.011 12C19.011 11.7387 19.11 11.512 19.3081 11.32C19.5062 11.128 19.74 11.032 20.0096 11.032C20.2847 11.032 20.5186 11.128 20.7111 11.32C20.9037 11.5067 21 11.7333 21 12C21 12.272 20.9037 12.5013 20.7111 12.688C20.5241 12.8747 20.2902 12.968 20.0096 12.968ZM8.00138 15.544C7.63824 15.544 7.32737 15.4187 7.06878 15.168C6.81018 14.9173 6.68088 14.616 6.68088 14.264C6.68088 13.9173 6.81018 13.6187 7.06878 13.368C7.33287 13.112 7.64374 12.984 8.00138 12.984C8.36451 12.984 8.67538 13.1093 8.93398 13.36C9.19807 13.6053 9.33012 13.9067 9.33012 14.264C9.33012 14.6213 9.20083 14.9253 8.94223 15.176C8.68363 15.4213 8.37001 15.544 8.00138 15.544ZM16.0234 15.544C15.6602 15.544 15.3494 15.4187 15.0908 15.168C14.8377 14.9173 14.7111 14.616 14.7111 14.264C14.7111 13.912 14.8404 13.6107 15.099 13.36C15.3576 13.1093 15.6657 12.984 16.0234 12.984C16.392 12.984 16.7056 13.1093 16.9642 13.36C17.2228 13.6053 17.3521 13.9067 17.3521 14.264C17.3521 14.6213 17.2228 14.9253 16.9642 15.176C16.7111 15.4213 16.3975 15.544 16.0234 15.544ZM3.99037 17.48C3.71527 17.48 3.48143 17.3867 3.28886 17.2C3.09629 17.0133 3 16.784 3 16.512C3 16.2507 3.09629 16.0267 3.28886 15.84C3.48693 15.648 3.72077 15.552 3.99037 15.552C4.27098 15.552 4.50757 15.6453 4.70014 15.832C4.89271 16.0133 4.989 16.24 4.989 16.512C4.989 16.784 4.89546 17.0133 4.70839 17.2C4.52132 17.3867 4.28198 17.48 3.99037 17.48ZM12.0206 17.792C11.652 17.792 11.3384 17.6667 11.0798 17.416C10.8212 17.1653 10.6919 16.864 10.6919 16.512C10.6919 16.1707 10.8212 15.872 11.0798 15.616C11.3439 15.36 11.6575 15.232 12.0206 15.232C12.3838 15.232 12.6919 15.3573 12.945 15.608C13.2036 15.8587 13.3329 16.16 13.3329 16.512C13.3329 16.8693 13.2036 17.1733 12.945 17.424C12.6919 17.6693 12.3838 17.792 12.0206 17.792ZM20.0096 17.48C19.7345 17.48 19.4979 17.3867 19.2999 17.2C19.1073 17.0133 19.011 16.784 19.011 16.512C19.011 16.2453 19.11 16.0187 19.3081 15.832C19.5062 15.6453 19.74 15.552 20.0096 15.552C20.2847 15.552 20.5186 15.6453 20.7111 15.832C20.9037 16.0187 21 16.2453 21 16.512C21 16.7893 20.9037 17.0213 20.7111 17.208C20.5241 17.3893 20.2902 17.48 20.0096 17.48ZM8.00138 19.752C7.72627 19.752 7.48968 19.6587 7.29161 19.472C7.09904 19.2853 7.00275 19.0587 7.00275 18.792C7.00275 18.5253 7.10179 18.296 7.29986 18.104C7.49794 17.9173 7.73177 17.824 8.00138 17.824C8.28198 17.824 8.51857 17.9173 8.71114 18.104C8.90371 18.2907 9 18.52 9 18.792C9 19.064 8.90371 19.2907 8.71114 19.472C8.52407 19.6587 8.28748 19.752 8.00138 19.752ZM16.0234 19.752C15.7483 19.752 15.5117 19.6587 15.3136 19.472C15.121 19.2853 15.0248 19.0587 15.0248 18.792C15.0248 18.5253 15.1238 18.296 15.3219 18.104C15.5199 17.9173 15.7538 17.824 16.0234 17.824C16.304 17.824 16.5406 17.9173 16.7331 18.104C16.9312 18.2907 17.0303 18.52 17.0303 18.792C17.0303 19.064 16.934 19.2907 16.7414 19.472C16.5488 19.6587 16.3095 19.752 16.0234 19.752ZM12.0206 22C11.74 22 11.5034 21.904 11.3109 21.712C11.1183 21.5253 11.022 21.2987 11.022 21.032C11.022 20.7707 11.1183 20.544 11.3109 20.352C11.5089 20.16 11.7455 20.064 12.0206 20.064C12.2957 20.064 12.5296 20.1573 12.7221 20.344C12.9147 20.5307 13.011 20.76 13.011 21.032C13.011 21.304 12.9147 21.5333 12.7221 21.72C12.5351 21.9067 12.3012 22 12.0206 22Z" fill="#252525"/>
</svg>
