<svg width="200" height="184" viewBox="0 0 200 184" fill="none" xmlns="http://www.w3.org/2000/svg">
<path opacity="0.1" d="M0 32C0 14.3269 14.3269 0 32 0H168C185.673 0 200 14.3269 200 32V184H0V32Z" fill="white"/>
<path d="M70 88V78C70 72.4772 74.4772 68 80 68H90" stroke="#FF9D7D" stroke-width="6" stroke-linecap="round"/>
<path d="M70 108V118C70 123.523 74.4772 128 80 128H90" stroke="#FF9D7D" stroke-width="6" stroke-linecap="round"/>
<path d="M130 88V78C130 72.4772 125.523 68 120 68H110" stroke="#FF9D7D" stroke-width="6" stroke-linecap="round"/>
<path d="M130 108V118C130 123.523 125.523 128 120 128H110" stroke="#FF9D7D" stroke-width="6" stroke-linecap="round"/>
<path d="M106.586 106.586C107.367 105.805 108.633 105.805 109.414 106.586C110.195 107.367 110.195 108.633 109.414 109.414C103.916 114.913 95.041 115.039 89.3877 109.7L89.127 109.454L88.9854 109.306C88.3227 108.539 88.3351 107.38 89.0459 106.627C89.757 105.874 90.9142 105.795 91.7178 106.413L91.873 106.546L92.1338 106.792C96.2134 110.645 102.618 110.554 106.586 106.586ZM100 87C101.105 87 102 87.8954 102 89V98C102 100.761 99.7614 103 97 103H96.5C95.3954 103 94.5 102.105 94.5 101C94.5 99.8954 95.3954 99 96.5 99H97C97.5523 99 98 98.5523 98 98V89C98 87.8954 98.8954 87 100 87ZM88.5 87C89.8807 87 91 88.1193 91 89.5V93.5C91 94.8807 89.8807 96 88.5 96C87.1193 96 86 94.8807 86 93.5V89.5C86 88.1193 87.1193 87 88.5 87ZM111.5 87C112.881 87 114 88.1193 114 89.5V93.5C114 94.8807 112.881 96 111.5 96C110.119 96 109 94.8807 109 93.5V89.5C109 88.1193 110.119 87 111.5 87Z" fill="#FF9D7D"/>
<g opacity="0.2">
<rect x="78" y="12.1953" width="44" height="12" rx="6" fill="#FF9D7D"/>
</g>
</svg>
