<svg width="32" height="32" viewBox="0 0 32 32" fill="none" xmlns="http://www.w3.org/2000/svg">
<path d="M14.8757 26C14.3302 26 13.885 25.7819 13.3506 25.2912L4.56772 17.1668C4.14471 16.7743 4 16.3599 4 16C4 15.6292 4.13358 15.2257 4.56772 14.8222L13.3506 6.77426C13.9406 6.22901 14.308 6 14.8534 6C15.6327 6 16.1781 6.59978 16.1781 7.33043V11.4526H16.5009C24.5158 11.4526 28 16.4798 28 24.5387C28 25.4766 27.4434 26 26.8534 26C26.3859 26 25.8738 25.8909 25.4842 25.193C23.5362 21.627 20.82 20.5583 16.5009 20.5583H16.1781V24.7241C16.1781 25.4547 15.6327 26 14.8757 26Z" fill="black" fill-opacity="0.4"/>
</svg>
