<svg width="32" height="32" viewBox="0 0 32 32" fill="none" xmlns="http://www.w3.org/2000/svg">
<path d="M12 16.5C12 17.3284 12.6716 18 13.5 18H20V25C20 26.6569 18.6569 28 17 28H9C7.34315 28 6 26.6569 6 25V13C6 11.3431 7.34315 10 9 10H12V16.5ZM18 10.5C18 11.3284 18.6716 12 19.5 12H26V19C26 20.6569 24.6569 22 23 22H21V17.3301C20.9999 16.5103 20.6644 15.7261 20.0713 15.1602L14.4844 9.8291C13.9265 9.29696 13.1851 9.00009 12.4141 9H12V7C12 5.34315 13.3431 4 15 4H18V10.5ZM13 10.083C13.5291 10.2078 14.0199 10.4725 14.4141 10.8594L19.1016 15.46C19.5311 15.8816 19.8197 16.4192 19.9385 17H13.5C13.2239 17 13 16.7761 13 16.5V10.083ZM19 4.08301C19.5291 4.20776 20.0199 4.47254 20.4141 4.85938L25.1016 9.45996C25.5311 9.88156 25.8197 10.4192 25.9385 11H19.5C19.2239 11 19 10.7761 19 10.5V4.08301Z" fill="#252525"/>
</svg>
