<svg width="24" height="24" viewBox="0 0 24 24" fill="none" xmlns="http://www.w3.org/2000/svg">
<path d="M8.74994 18.75C8.74994 19.1642 8.41411 19.4999 7.99994 19.5C7.58573 19.5 7.24994 19.1642 7.24994 18.75V16.8105L3.53022 20.5303C3.23734 20.8232 2.76257 20.8231 2.46967 20.5303C2.17678 20.2374 2.17678 19.7626 2.46967 19.4697L6.1894 15.75H4.24994C3.83573 15.75 3.49994 15.4142 3.49994 15C3.49994 14.5858 3.83573 14.25 4.24994 14.25H8.74994V18.75ZM18.1542 4.00391C19.7393 4.08426 20.9999 5.39493 20.9999 7V17C20.9999 18.6051 19.7393 19.9157 18.1542 19.9961L17.9999 20H9.99994C10.3363 19.5523 10.5998 19.0465 10.7714 18.5H17.9999C18.8283 18.4999 19.4999 17.8284 19.4999 17V9H4.49994V12.2285C3.95348 12.4001 3.44768 12.6637 2.99994 13V7C2.99994 5.34315 4.34309 4 5.99994 4H17.9999L18.1542 4.00391Z" fill="#A7A7A7"/>
</svg>
