<svg width="47" height="52" viewBox="0 0 47 52" fill="none" xmlns="http://www.w3.org/2000/svg">
<path d="M15 21.0625C23.2841 21.0625 29.9997 27.7775 30 36.0615C30 44.3458 23.2843 51.0615 15 51.0615C6.71573 51.0615 0 44.3458 0 36.0615C0.000263638 27.7775 6.71589 21.0625 15 21.0625ZM44.3682 12.5654C45.8215 12.5654 47 13.7439 47 15.1973V47.9336C47 49.387 45.8215 50.5654 44.3682 50.5654H37.6318C36.1785 50.5654 35 49.387 35 47.9336V15.1973C35 13.7439 36.1785 12.5654 37.6318 12.5654H44.3682ZM32.8682 0.5C34.3215 0.5 35.4999 1.67758 35.5 3.13086V9.86816C35.4999 11.3214 34.3215 12.5 32.8682 12.5H10.1318C8.67853 12.5 7.50012 11.3214 7.5 9.86816V3.13086C7.50012 1.67758 8.67853 0.5 10.1318 0.5H32.8682Z" fill="white"/>
</svg>
