<svg width="33" height="32" viewBox="0 0 33 32" fill="none" xmlns="http://www.w3.org/2000/svg">
<path d="M24.318 21.6982C24.4343 21.5783 24.5335 21.4401 24.6081 21.2842C24.7332 21.0237 24.7809 20.7321 24.7458 20.4453C24.7106 20.1588 24.5939 19.8884 24.4098 19.666C24.3386 19.5802 24.2685 19.494 24.1999 19.4111C23.2546 18.2678 22.6823 17.5774 22.6823 14.3408C22.6823 12.665 22.2811 11.29 21.4909 10.2588C20.9082 9.49695 20.1208 8.91832 19.0827 8.49121C19.0694 8.4838 19.0574 8.47441 19.0475 8.46289C18.6741 7.2125 17.6521 6.375 16.4997 6.375C15.3474 6.37515 14.3262 7.21292 13.9528 8.46191C13.9429 8.47301 13.9306 8.48199 13.9176 8.48926C13.2373 8.76937 12.655 9.12177 12.1696 9.54883L24.318 21.6982ZM10.5739 12.1963C10.4036 12.8384 10.3181 13.5517 10.318 14.3389C10.318 17.577 9.74661 18.2671 8.80046 19.4092C8.73173 19.4921 8.66181 19.5764 8.5905 19.6641C8.40626 19.8863 8.28998 20.1569 8.25456 20.4434C8.21915 20.7298 8.26668 21.0209 8.39128 21.2812C8.65647 21.8395 9.22117 22.1865 9.86589 22.1865H20.5651L10.5739 12.1963ZM16.4997 25.625C17.1206 25.6245 17.7305 25.4564 18.2633 25.1377C18.7962 24.819 19.2329 24.3612 19.527 23.8145C19.5408 23.7883 19.5474 23.759 19.5466 23.7295C19.5457 23.6999 19.5374 23.6709 19.5221 23.6455C19.5069 23.6203 19.4853 23.5995 19.4596 23.585C19.4338 23.5704 19.4043 23.5625 19.3747 23.5625H13.6266C13.597 23.5624 13.5675 23.5704 13.5417 23.585C13.5158 23.5995 13.4935 23.6201 13.4782 23.6455C13.4629 23.6709 13.4546 23.6999 13.4538 23.7295C13.4529 23.759 13.4596 23.7883 13.4733 23.8145C13.7674 24.3611 14.2044 24.818 14.737 25.1367C15.2697 25.4554 15.8789 25.6244 16.4997 25.625Z" fill="#252525"/>
<rect x="9.56055" y="8" width="22" height="1.5" rx="0.75" transform="rotate(45 9.56055 8)" fill="#252525"/>
</svg>
