<svg width="24" height="24" viewBox="0 0 24 24" fill="none" xmlns="http://www.w3.org/2000/svg">
<path d="M2.57141 9.42843C2.57141 7.02821 2.57141 5.82809 3.03853 4.91133C3.44941 4.10492 4.10504 3.44929 4.91145 3.0384C5.82822 2.57129 7.02833 2.57129 9.42855 2.57129H14.5714C16.9716 2.57129 18.1717 2.57129 19.0885 3.0384C19.8949 3.44929 20.5506 4.10492 20.9614 4.91133C21.4286 5.82809 21.4286 7.02821 21.4286 9.42843V14.5713C21.4286 16.9715 21.4286 18.1716 20.9614 19.0884C20.5506 19.8948 19.8949 20.5504 19.0885 20.9613C18.1717 21.4284 16.9716 21.4284 14.5714 21.4284H9.42855C7.02833 21.4284 5.82822 21.4284 4.91145 20.9613C4.10504 20.5504 3.44941 19.8948 3.03853 19.0884C2.57141 18.1716 2.57141 16.9715 2.57141 14.5713V9.42843Z" fill="#AB50CC"/>
<path fill-rule="evenodd" clip-rule="evenodd" d="M9.88317 8.54574C10.1342 8.7968 10.1342 9.20384 9.88311 9.45488L7.33774 11.9999L9.88314 14.5453C10.1342 14.7964 10.1342 15.2034 9.88314 15.4545C9.63209 15.7055 9.22506 15.7055 8.97401 15.4545L5.51941 11.9999L8.97403 8.54568C9.2251 8.29465 9.63213 8.29467 9.88317 8.54574Z" fill="white"/>
<path fill-rule="evenodd" clip-rule="evenodd" d="M14.1168 8.54574C13.8658 8.7968 13.8658 9.20384 14.1169 9.45488L16.6623 11.9999L14.1169 14.5453C13.8658 14.7964 13.8658 15.2034 14.1169 15.4545C14.3679 15.7055 14.7749 15.7055 15.026 15.4545L18.4806 11.9999L15.026 8.54568C14.7749 8.29465 14.3679 8.29467 14.1168 8.54574Z" fill="white"/>
</svg>
