<svg width="32" height="33" viewBox="0 0 32 33" fill="none" xmlns="http://www.w3.org/2000/svg">
<path d="M11.9101 14.0344H9.78309C9.09173 14.0344 8.46034 13.8686 7.88891 13.537C7.31748 13.2055 6.85893 12.7575 6.51325 12.1931C6.17462 11.6287 6.00531 10.9974 6.00531 10.2989C6.00531 9.60053 6.17462 8.96561 6.51325 8.39418C6.85893 7.8157 7.31748 7.35714 7.88891 7.01852C8.46034 6.67284 9.09173 6.5 9.78309 6.5C10.4815 6.5 11.1164 6.67284 11.6878 7.01852C12.2593 7.35714 12.7143 7.8157 13.0529 8.39418C13.3916 8.96561 13.5609 9.60053 13.5609 10.2989V12.4153H18.4392V10.2989C18.4392 9.60053 18.6085 8.96561 18.9471 8.39418C19.2928 7.8157 19.7513 7.35714 20.3228 7.01852C20.8942 6.67284 21.5256 6.5 22.217 6.5C22.9154 6.5 23.5503 6.67284 24.1217 7.01852C24.6931 7.35714 25.1482 7.8157 25.4868 8.39418C25.8254 8.96561 25.9947 9.60053 25.9947 10.2989C25.9947 10.9974 25.8254 11.6287 25.4868 12.1931C25.1482 12.7575 24.6931 13.2055 24.1217 13.537C23.5503 13.8686 22.9154 14.0344 22.217 14.0344H20.09V18.9762H22.217C22.9154 18.9762 23.5503 19.142 24.1217 19.4735C24.6931 19.8051 25.1482 20.2531 25.4868 20.8175C25.8254 21.3818 25.9947 22.0132 25.9947 22.7116C25.9947 23.4101 25.8254 24.045 25.4868 24.6164C25.1482 25.1949 24.6931 25.6534 24.1217 25.9921C23.5503 26.3307 22.9154 26.5 22.217 26.5C21.5256 26.5 20.8942 26.3307 20.3228 25.9921C19.7513 25.6534 19.2928 25.1949 18.9471 24.6164C18.6085 24.045 18.4392 23.4101 18.4392 22.7116V20.5952H13.5609V22.7116C13.5609 23.4101 13.3916 24.045 13.0529 24.6164C12.7143 25.1949 12.2593 25.6534 11.6878 25.9921C11.1164 26.3307 10.4815 26.5 9.78309 26.5C9.09173 26.5 8.46034 26.3307 7.88891 25.9921C7.31748 25.6534 6.85893 25.1949 6.51325 24.6164C6.17462 24.045 6.00531 23.4101 6.00531 22.7116C6.00531 22.0132 6.17462 21.3818 6.51325 20.8175C6.85893 20.2531 7.31748 19.8051 7.88891 19.4735C8.46034 19.142 9.09173 18.9762 9.78309 18.9762H11.9101V14.0344ZM9.78309 12.4365H11.9101V10.2989C11.9101 9.90388 11.8113 9.54409 11.6138 9.21958C11.4233 8.89506 11.1658 8.63757 10.8413 8.44709C10.5238 8.24956 10.1711 8.15079 9.78309 8.15079C9.39508 8.15079 9.03882 8.24956 8.7143 8.44709C8.39684 8.63757 8.13935 8.89506 7.94182 9.21958C7.75134 9.54409 7.6561 9.90388 7.6561 10.2989C7.6561 10.6869 7.75134 11.0432 7.94182 11.3677C8.13935 11.6922 8.39684 11.9533 8.7143 12.1508C9.03882 12.3413 9.39508 12.4365 9.78309 12.4365ZM22.217 12.4365C22.605 12.4365 22.9612 12.3413 23.2857 12.1508C23.6102 11.9533 23.8677 11.6922 24.0582 11.3677C24.2487 11.0432 24.3439 10.6869 24.3439 10.2989C24.3439 9.90388 24.2487 9.54409 24.0582 9.21958C23.8677 8.89506 23.6102 8.63757 23.2857 8.44709C22.9612 8.24956 22.605 8.15079 22.217 8.15079C21.8289 8.15079 21.4727 8.24956 21.1482 8.44709C20.8307 8.63757 20.5732 8.89506 20.3757 9.21958C20.1852 9.54409 20.09 9.90388 20.09 10.2989V12.4365H22.217ZM13.5609 18.9762H18.4392V14.0344H13.5609V18.9762ZM9.78309 20.5635C9.39508 20.5635 9.03882 20.6587 8.7143 20.8492C8.39684 21.0397 8.13935 21.2972 7.94182 21.6217C7.75134 21.9462 7.6561 22.306 7.6561 22.7011C7.6561 23.0891 7.75134 23.4453 7.94182 23.7698C8.13935 24.0944 8.39684 24.3519 8.7143 24.5423C9.03882 24.7399 9.39508 24.8386 9.78309 24.8386C10.1711 24.8386 10.5238 24.7399 10.8413 24.5423C11.1658 24.3519 11.4233 24.0944 11.6138 23.7698C11.8113 23.4453 11.9101 23.0891 11.9101 22.7011V20.5635H9.78309ZM22.217 20.5635H20.09V22.7011C20.09 23.0891 20.1852 23.4453 20.3757 23.7698C20.5732 24.0944 20.8307 24.3519 21.1482 24.5423C21.4727 24.7399 21.8289 24.8386 22.217 24.8386C22.605 24.8386 22.9612 24.7399 23.2857 24.5423C23.6102 24.3519 23.8677 24.0944 24.0582 23.7698C24.2487 23.4453 24.3439 23.0891 24.3439 22.7011C24.3439 22.306 24.2487 21.9462 24.0582 21.6217C23.8677 21.2972 23.6102 21.0397 23.2857 20.8492C22.9612 20.6587 22.605 20.5635 22.217 20.5635Z" fill="#A7A7A7"/>
</svg>
