<svg width="18" height="18" viewBox="0 0 18 18" fill="none" xmlns="http://www.w3.org/2000/svg">
<path fill-rule="evenodd" clip-rule="evenodd" d="M11.5 7.25C11.5 7.11193 11.6119 7 11.75 7H13.75C13.8881 7 14 7.11193 14 7.25V8.25C14 8.38807 13.8881 8.5 13.75 8.5H11.75C11.6119 8.5 11.5 8.38807 11.5 8.25V7.25ZM7.75 9.75C7.75 9.61193 7.86193 9.5 8 9.5H10C10.1381 9.5 10.25 9.61193 10.25 9.75V10.75C10.25 10.8881 10.1381 11 10 11H8C7.86193 11 7.75 10.8881 7.75 10.75V9.75ZM11.75 9.5C11.6119 9.5 11.5 9.61193 11.5 9.75V10.75C11.5 10.8881 11.6119 11 11.75 11H13.75C13.8881 11 14 10.8881 14 10.75V9.75C14 9.61193 13.8881 9.5 13.75 9.5H11.75ZM7.75 7.25C7.75 7.11193 7.86193 7 8 7H10C10.1381 7 10.25 7.11193 10.25 7.25V8.25C10.25 8.38807 10.1381 8.5 10 8.5H8C7.86193 8.5 7.75 8.38807 7.75 8.25V7.25ZM4.25 9.5C4.11193 9.5 4 9.61193 4 9.75V10.75C4 10.8881 4.11193 11 4.25 11H6.25C6.38807 11 6.5 10.8881 6.5 10.75V9.75C6.5 9.61193 6.38807 9.5 6.25 9.5H4.25ZM7.75 12.25C7.75 12.1119 7.86193 12 8 12H10C10.1381 12 10.25 12.1119 10.25 12.25V13.25C10.25 13.3881 10.1381 13.5 10 13.5H8C7.86193 13.5 7.75 13.3881 7.75 13.25V12.25ZM4.25 12C4.11193 12 4 12.1119 4 12.25V13.25C4 13.3881 4.11193 13.5 4.25 13.5H6.25C6.38807 13.5 6.5 13.3881 6.5 13.25V12.25C6.5 12.1119 6.38807 12 6.25 12H4.25Z" fill="black"/>
<path fill-rule="evenodd" clip-rule="evenodd" d="M1.5 5C1.5 3.34315 2.84315 2 4.5 2H13.5C15.1569 2 16.5 3.34315 16.5 5V13C16.5 14.6569 15.1569 16 13.5 16H4.5C2.84315 16 1.5 14.6569 1.5 13V5ZM2.5 13V5H15.5V13C15.5 14.1046 14.6046 15 13.5 15H4.5C3.39543 15 2.5 14.1046 2.5 13Z" fill="black"/>
</svg>
