<svg width="18" height="18" viewBox="0 0 18 18" fill="none" xmlns="http://www.w3.org/2000/svg">
<path d="M9 0C11.4853 0 13.5 2.01472 13.5 4.5V7C14.6046 7 15.5 7.89543 15.5 9V16C15.5 17.1046 14.6046 18 13.5 18H4.5C3.39543 18 2.5 17.1046 2.5 16V9C2.5 7.89543 3.39543 7 4.5 7V4.5C4.5 2.01472 6.51472 0 9 0ZM11.8467 9.72266C11.5596 9.53112 11.1721 9.60852 10.9805 9.89551L8.39062 13.7725L6.94531 12.3037C6.70315 12.0578 6.30749 12.0547 6.06152 12.2969C5.81558 12.539 5.81254 12.9347 6.05469 13.1807L8.03906 15.1963L8.57812 15.7432L9.00391 15.1045L12.0195 10.5889C12.2111 10.3018 12.1337 9.91431 11.8467 9.72266ZM9 1.5C7.34315 1.5 6 2.84315 6 4.5V7H12V4.5C12 2.84315 10.6569 1.5 9 1.5Z" fill="#A7A7A7"/>
</svg>
