<svg width="24" height="24" viewBox="0 0 24 24" fill="none" xmlns="http://www.w3.org/2000/svg">
<path d="M12.0075 2.5C12.6966 2.4995 13.3439 2.62955 13.9493 2.89014C14.5547 3.14551 15.0843 3.50273 15.5382 3.96182C15.9973 4.41567 16.3545 4.9453 16.6099 5.5507C16.8704 6.15088 17.0005 6.79553 17 7.48464C16.9992 8.55486 16.6722 9.51829 16.0191 10.3749C15.3711 11.2316 14.4413 11.9005 13.2298 12.3816L15.3191 14.4866C15.4026 14.5701 15.4443 14.664 15.4442 14.7685C15.4494 14.8729 15.4128 14.9642 15.3344 15.0426L13.2185 17.1506L14.7601 18.6687C14.8384 18.7522 14.8775 18.8461 14.8774 18.9505C14.8825 19.0549 14.8433 19.1489 14.7597 19.2325L12.2755 21.7167C12.1919 21.8003 12.0927 21.8369 11.9779 21.8266C11.8683 21.8162 11.7795 21.7771 11.7117 21.7093L10.4049 20.3946C10.3371 20.3216 10.285 20.2459 10.2485 20.1677C10.2172 20.0894 10.2016 20.0006 10.2017 19.9015L10.2073 12.1724C9.55487 11.9223 8.9887 11.5651 8.50874 11.1008C8.02879 10.6313 7.65591 10.0886 7.39011 9.4728C7.12953 8.85174 6.9995 8.19143 7 7.49187C7.0005 6.79754 7.12888 6.15009 7.38512 5.54954C7.64658 4.94377 8.00458 4.41362 8.45909 3.9591C8.91884 3.49936 9.44898 3.14137 10.0495 2.88513C10.6553 2.62888 11.308 2.50051 12.0075 2.5ZM12.0042 7.08888C12.3644 7.08862 12.6725 6.96049 12.9285 6.7045C13.1845 6.44851 13.3126 6.1404 13.3129 5.78018C13.3132 5.41474 13.1855 5.10682 12.9299 4.85642C12.6742 4.6008 12.3663 4.47312 12.0061 4.47338C11.6354 4.47364 11.3247 4.60177 11.0739 4.85776C10.8232 5.10853 10.6977 5.41663 10.6974 5.78207C10.6971 6.14229 10.8222 6.45022 11.0726 6.70584C11.3282 6.96146 11.6388 7.08914 12.0042 7.08888Z" fill="#A7A7A7"/>
</svg>
