<svg width="32" height="32" viewBox="0 0 32 32" fill="none" xmlns="http://www.w3.org/2000/svg">
<path d="M16 25.7646C14.7074 25.7646 13.4889 25.5173 12.3447 25.0225C11.2067 24.5277 10.2017 23.8442 9.32959 22.9722C8.45752 22.1001 7.77409 21.0951 7.2793 19.957C6.78451 18.8128 6.53711 17.5944 6.53711 16.3018C6.53711 15.0091 6.78451 13.7938 7.2793 12.6558C7.77409 11.5116 8.45752 10.5034 9.32959 9.63135C10.2017 8.75928 11.2098 8.07585 12.354 7.58105C13.4982 7.08626 14.7166 6.83887 16.0093 6.83887C17.2153 6.83887 18.3564 7.05534 19.4326 7.48828C20.5088 7.92122 21.4705 8.52425 22.3179 9.29736C23.1652 10.0643 23.8579 10.958 24.396 11.9785C24.9341 12.999 25.2681 14.0999 25.3979 15.2812C25.1629 15.2318 24.8939 15.2008 24.5908 15.1885C24.2878 15.1699 24.0218 15.1761 23.793 15.207C23.6631 14.2422 23.3724 13.3485 22.9209 12.5259C22.4756 11.6971 21.9035 10.9766 21.2046 10.3643C20.5057 9.74577 19.714 9.26644 18.8296 8.92627C17.9451 8.5861 17.005 8.41602 16.0093 8.41602C14.9146 8.41602 13.8879 8.62012 12.9292 9.02832C11.9767 9.43034 11.1387 9.99316 10.415 10.7168C9.69759 11.4404 9.13477 12.2785 8.72656 13.231C8.31836 14.1834 8.11426 15.207 8.11426 16.3018C8.10807 17.3965 8.30908 18.4201 8.71729 19.3726C9.12549 20.325 9.68831 21.1631 10.4058 21.8867C11.1294 22.6042 11.9674 23.167 12.9199 23.5752C13.8786 23.9834 14.9053 24.1875 16 24.1875C16.501 24.1875 16.9896 24.1411 17.4658 24.0483C17.9482 23.9556 18.409 23.8226 18.8481 23.6494C18.9533 23.8968 19.0739 24.1318 19.21 24.3545C19.3522 24.5771 19.513 24.7905 19.6924 24.9946C19.1234 25.242 18.5265 25.4307 17.9019 25.5605C17.2834 25.6966 16.6494 25.7646 16 25.7646ZM14.0889 15.1514L12.9941 15.1143L13.5322 15.5132L14.6919 16.6265C14.828 16.7502 14.896 16.911 14.896 17.1089C14.896 17.3006 14.8311 17.4614 14.7012 17.5913C14.5775 17.7212 14.4229 17.7861 14.2373 17.7861C14.0518 17.7861 13.894 17.7212 13.7642 17.5913L11.2871 15.0586C11.1201 14.8978 11.0366 14.7122 11.0366 14.502C11.0366 14.2855 11.1201 14.0968 11.2871 13.936L13.7549 11.4312C13.8786 11.2951 14.0363 11.2271 14.228 11.2271C14.4136 11.2271 14.5713 11.292 14.7012 11.4219C14.8311 11.5518 14.896 11.7126 14.896 11.9043C14.896 12.096 14.8249 12.2568 14.6826 12.3867L13.7271 13.3145L12.9941 13.8896L14.0889 13.8525H16.9092C17.8307 13.8525 18.6193 14.0845 19.2749 14.5483C19.9305 15.0122 20.3542 15.6554 20.5459 16.478C20.0449 16.8739 19.6243 17.3315 19.2842 17.8511C19.2965 17.7769 19.3058 17.6995 19.312 17.6191C19.3182 17.5326 19.3213 17.4491 19.3213 17.3687C19.3213 16.6512 19.0894 16.1038 18.6255 15.7266C18.1616 15.3431 17.5895 15.1514 16.9092 15.1514H14.0889ZM16.8999 19.7344C17.2524 19.7344 17.5771 19.6787 17.874 19.5674C18.1771 19.4499 18.4338 19.286 18.644 19.0757C18.4338 19.6509 18.3193 20.2323 18.3008 20.8198C17.8678 20.9806 17.4009 21.061 16.8999 21.061H15.2114C15.0011 21.061 14.828 21.0054 14.6919 20.894C14.5558 20.7765 14.4878 20.6095 14.4878 20.3931C14.4878 20.1766 14.5558 20.0127 14.6919 19.9014C14.828 19.79 14.995 19.7344 15.1929 19.7344H16.8999ZM24.2661 25.8667C23.6229 25.8667 23.0168 25.743 22.4478 25.4956C21.8787 25.2544 21.3778 24.9173 20.9448 24.4844C20.5119 24.0514 20.1717 23.5505 19.9243 22.9814C19.6769 22.4124 19.5532 21.8032 19.5532 21.1538C19.5532 20.5044 19.6769 19.8983 19.9243 19.3354C20.1717 18.7664 20.5119 18.2655 20.9448 17.8325C21.3778 17.3934 21.8787 17.0532 22.4478 16.812C23.0168 16.5646 23.6229 16.4409 24.2661 16.4409C24.9155 16.4409 25.5247 16.5646 26.0938 16.812C26.6628 17.0532 27.1637 17.3903 27.5967 17.8232C28.0296 18.2562 28.3667 18.7572 28.6079 19.3262C28.8553 19.8952 28.979 20.5044 28.979 21.1538C28.979 21.797 28.8553 22.4032 28.6079 22.9722C28.3605 23.5412 28.0173 24.0422 27.5781 24.4751C27.1452 24.908 26.6442 25.2482 26.0752 25.4956C25.5062 25.743 24.9032 25.8667 24.2661 25.8667ZM21.687 21.8774C21.8911 21.8774 22.0643 21.8063 22.2065 21.6641C22.3488 21.5218 22.4199 21.3517 22.4199 21.1538C22.4199 20.9559 22.3488 20.7858 22.2065 20.6436C22.0643 20.5013 21.8911 20.4302 21.687 20.4302C21.4953 20.4302 21.3283 20.5013 21.186 20.6436C21.0438 20.7858 20.9727 20.9559 20.9727 21.1538C20.9727 21.3517 21.0438 21.5218 21.186 21.6641C21.3283 21.8063 21.4953 21.8774 21.687 21.8774ZM24.2754 21.8774C24.4733 21.8774 24.6434 21.8063 24.7856 21.6641C24.9341 21.5218 25.0083 21.3517 25.0083 21.1538C25.0083 20.9559 24.9341 20.7858 24.7856 20.6436C24.6434 20.5013 24.4733 20.4302 24.2754 20.4302C24.0837 20.4302 23.9136 20.5013 23.7651 20.6436C23.6229 20.7858 23.5518 20.9559 23.5518 21.1538C23.5518 21.3517 23.6229 21.5218 23.7651 21.6641C23.9136 21.8063 24.0837 21.8774 24.2754 21.8774ZM26.8545 21.8774C27.0462 21.8774 27.2132 21.8063 27.3555 21.6641C27.4977 21.5218 27.5688 21.3517 27.5688 21.1538C27.575 20.9559 27.507 20.7858 27.3647 20.6436C27.2225 20.5013 27.0524 20.4302 26.8545 20.4302C26.6504 20.4302 26.4772 20.5013 26.335 20.6436C26.1989 20.7858 26.1309 20.9559 26.1309 21.1538C26.1309 21.3517 26.1989 21.5218 26.335 21.6641C26.4772 21.8063 26.6504 21.8774 26.8545 21.8774Z" fill="#A7A7A7"/>
</svg>
