<svg width="24" height="24" viewBox="0 0 24 24" fill="none" xmlns="http://www.w3.org/2000/svg">
<path d="M16.0708 5.57309C16.3521 5.85497 16.7341 6.01337 17.1323 6.01337H19.5005C20.8812 6.01337 22.0005 7.13265 22.0005 8.51337V17.5134C22.0005 18.8941 20.8812 20.0134 19.5005 20.0134H4.50049C3.11978 20.0134 2.00049 18.8941 2.00049 17.5134V8.51337C2.00049 7.13265 3.11978 6.01337 4.50049 6.01337H6.86847C7.26685 6.01337 7.64886 5.85489 7.93025 5.5729L9.06059 4.44016C9.34199 4.15817 9.724 3.99969 10.1224 3.99969H13.878C14.2763 3.99969 14.6582 4.15809 14.9396 4.43997L16.0708 5.57309Z" fill="#A7A7A7"/>
<circle cx="12.0001" cy="12.9998" r="3.85714" stroke="white" stroke-width="1.28571"/>
</svg>
