<svg width="24" height="24" viewBox="0 0 24 24" fill="none" xmlns="http://www.w3.org/2000/svg">
<path d="M13.8784 3.99985C14.2765 3.99993 14.6586 4.15848 14.9399 4.44028L16.0707 5.57309C16.3521 5.85495 16.734 6.0135 17.1323 6.01352H19.5004C20.8811 6.01352 22.0004 7.13281 22.0004 8.51352V17.5135C22.0003 18.8942 20.8811 20.0135 19.5004 20.0135H4.50043C3.11979 20.0135 2.00051 18.8941 2.00043 17.5135V8.51352C2.00043 7.13283 3.11974 6.01355 4.50043 6.01352H6.86859C7.26685 6.01349 7.64876 5.85495 7.93011 5.57309L9.06097 4.44028C9.34236 4.15837 9.72418 3.99985 10.1225 3.99985H13.8784ZM12.0004 8.49985C9.51515 8.49985 7.50043 10.5146 7.50043 12.9998C7.50043 15.4851 9.51515 17.4998 12.0004 17.4998C14.4855 17.4996 16.5004 15.485 16.5004 12.9998C16.5004 10.5147 14.4855 8.50005 12.0004 8.49985ZM12.0004 9.78598C13.7755 9.78618 15.2143 11.2248 15.2143 12.9998C15.2143 14.7749 13.7755 16.2135 12.0004 16.2137C10.2252 16.2137 8.78656 14.775 8.78656 12.9998C8.78656 11.2246 10.2252 9.78598 12.0004 9.78598Z" fill="#A7A7A7"/>
</svg>
