<svg width="24" height="24" viewBox="0 0 24 24" fill="none" xmlns="http://www.w3.org/2000/svg">
<path d="M22 5C22 3.34315 20.6569 2 19 2H10C8.34315 2 7 3.34315 7 5V6H14C16.2091 6 18 7.79086 18 10V17H19C20.6569 17 22 15.6569 22 14V5Z" fill="#5DD400"/>
<rect x="2.46875" y="7.53125" width="14" height="14" rx="3" stroke="#5DD400"/>
<path d="M14.5001 8C15.6044 8.00009 16.4999 8.89568 16.5001 10V19L12.0714 14.1289C11.7679 13.7953 11.2409 13.8032 10.9474 14.1455L9.02744 16.3857C8.74312 16.7174 8.23577 16.7367 7.92685 16.4277L7.03036 15.5303C6.73757 15.2377 6.26268 15.2378 5.96982 15.5303L2.50009 19V10C2.50032 8.89563 3.39566 8 4.50009 8H14.5001ZM7.00009 10.334C6.07972 10.334 5.33327 11.0797 5.3331 12C5.3331 12.9205 6.07962 13.667 7.00009 13.667C7.92047 13.6669 8.66611 12.9204 8.66611 12C8.66594 11.0797 7.92037 10.3341 7.00009 10.334Z" fill="#5DD400"/>
</svg>
