<svg width="72" height="16" viewBox="0 0 72 16" fill="none" xmlns="http://www.w3.org/2000/svg">
<path d="M9.26846 12.2148V2.42862H6.99289V4.0522H6.85866C6.73934 3.81357 6.57102 3.56001 6.35369 3.29155C6.13636 3.01882 5.84233 2.78658 5.47159 2.59482C5.10085 2.39879 4.62784 2.30078 4.05255 2.30078C3.29403 2.30078 2.61008 2.49467 2.00071 2.88246C1.38707 3.26598 0.901276 3.83487 0.543322 4.58913C0.181106 5.33913 -3.8147e-06 6.25959 -3.8147e-06 7.3505C-3.8147e-06 8.42862 0.176844 9.34482 0.530537 10.0991C0.88423 10.8533 1.36576 11.4286 1.97514 11.8249C2.58451 12.2212 3.27485 12.4194 4.04616 12.4194C4.60866 12.4194 5.07528 12.3256 5.44602 12.1381C5.81676 11.9506 6.11505 11.7248 6.34091 11.4606C6.5625 11.1921 6.73508 10.9386 6.85866 10.6999H6.95454V12.2148H9.26846ZM6.99929 7.33771C6.99929 7.97266 6.9098 8.52876 6.73082 9.00604C6.54758 9.48331 6.28551 9.85618 5.9446 10.1246C5.59943 10.3889 5.18182 10.521 4.69176 10.521C4.18039 10.521 3.75213 10.3846 3.40696 10.1119C3.06179 9.83487 2.80184 9.45774 2.62713 8.98047C2.44815 8.49893 2.35866 7.95135 2.35866 7.33771C2.35866 6.72834 2.44602 6.18714 2.62074 5.71413C2.79545 5.24112 3.05539 4.87038 3.40057 4.60192C3.74574 4.33345 4.17613 4.19922 4.69176 4.19922C5.18608 4.19922 5.60582 4.32919 5.95099 4.58913C6.29616 4.84908 6.55824 5.21342 6.73721 5.68217C6.91193 6.15092 6.99929 6.70277 6.99929 7.33771Z" fill="#252525"/>
<path fill-rule="evenodd" clip-rule="evenodd" d="M37.3543 2.42649V4.21626H35.4175V9.29155C35.4175 9.60263 35.4644 9.84126 35.5581 10.0075C35.6561 10.1694 35.784 10.2802 35.9416 10.3398C36.0993 10.3995 36.274 10.4293 36.4658 10.4293C36.6107 10.4293 36.7428 10.4187 36.8621 10.3974C36.9857 10.3761 37.0794 10.3569 37.1433 10.3398L37.5332 12.1488C37.4097 12.1914 37.2328 12.2383 37.0027 12.2894C36.7769 12.3406 36.4999 12.3704 36.1717 12.3789C35.5922 12.396 35.0702 12.3086 34.6057 12.1168C34.1412 11.9208 33.7726 11.6183 33.4999 11.2092C33.2314 10.8001 33.0993 10.2887 33.1036 9.67507V4.21626V2.42649V0.0742188H35.4175V2.42649H37.3543ZM13.7772 12.2447V6.49183C13.7772 6.01882 13.8646 5.61612 14.0393 5.28374C14.2183 4.95135 14.4633 4.6978 14.7744 4.52308C15.0897 4.3441 15.4498 4.25462 15.8546 4.25462C16.4512 4.25462 16.9178 4.43999 17.2545 4.81072C17.5954 5.18146 17.7658 5.69496 17.7658 6.35121V12.2447H20.0798V5.99325C20.084 5.20916 19.9455 4.54226 19.6643 3.99254C19.3873 3.44283 18.9952 3.02308 18.4881 2.73331C17.9853 2.44354 17.3951 2.29865 16.7175 2.29865C15.9846 2.29865 15.3688 2.46058 14.8702 2.78445C14.3759 3.10831 14.0158 3.5451 13.79 4.09481H13.6749V2.42649H11.4633V12.2447H13.7772ZM40.8192 15.8242C41.2352 14.6989 41.6502 13.5732 42.07 12.4492L38.5096 2.42649H40.9642L43.227 9.84126H43.3292L45.5984 2.42649H48.0593L43.2641 15.8242H40.8192ZM49.6605 15.9265V2.42649H51.9361V4.05007H52.0704C52.1897 3.81143 52.358 3.55788 52.5753 3.28942C52.7927 3.01669 53.0867 2.78445 53.4574 2.59268C53.8282 2.39666 54.3012 2.29865 54.8765 2.29865C55.635 2.29865 56.3189 2.49254 56.9283 2.88033C57.5419 3.26385 58.0277 3.83274 58.3857 4.587C58.7479 5.337 58.929 6.25746 58.929 7.34837C58.929 8.42649 58.7522 9.34268 58.3985 10.0969C58.0448 10.8512 57.5633 11.4265 56.9539 11.8228C56.3445 12.2191 55.6542 12.4173 54.8829 12.4173C54.3204 12.4173 53.8537 12.3235 53.483 12.136C53.1123 11.9485 52.814 11.7227 52.5881 11.4585C52.3665 11.19 52.1939 10.9364 52.0704 10.6978H51.9745V15.9265H49.6605ZM51.9297 7.33558C51.9297 7.97053 52.0192 8.52663 52.1982 9.00391C52.3814 9.48118 52.6435 9.85405 52.9844 10.1225C53.3296 10.3867 53.7472 10.5188 54.2373 10.5188C54.7486 10.5188 55.1769 10.3825 55.5221 10.1097C55.8672 9.83274 56.1272 9.45561 56.3019 8.97834C56.4809 8.4968 56.5704 7.94922 56.5704 7.33558C56.5704 6.72621 56.483 6.18501 56.3083 5.712C56.1336 5.23899 55.8736 4.86825 55.5285 4.59979C55.1833 4.33132 54.7529 4.19709 54.2373 4.19709C53.7429 4.19709 53.3232 4.32706 52.978 4.587C52.6329 4.84695 52.3708 5.21129 52.1918 5.68004C52.0171 6.14879 51.9297 6.70064 51.9297 7.33558ZM62.7067 11.8228C63.4226 12.2319 64.2728 12.4364 65.2571 12.4364C66.0199 12.4364 66.6975 12.3214 67.2898 12.0913C67.8821 11.8569 68.3679 11.5288 68.7472 11.1069C69.1307 10.6808 69.3907 10.1822 69.527 9.61115L67.3665 9.36825C67.2643 9.64524 67.113 9.87749 66.9127 10.065C66.7124 10.2525 66.4759 10.3952 66.2032 10.4933C65.9304 10.587 65.6258 10.6339 65.2891 10.6339C64.7863 10.6339 64.3473 10.5273 63.9723 10.3143C63.5973 10.0969 63.3054 9.78587 63.0966 9.38104C62.8949 8.98575 62.7906 8.51487 62.7838 7.96839H69.6229V7.25888C69.6229 6.39808 69.5036 5.65661 69.265 5.03445C69.0263 4.40803 68.6982 3.8924 68.2806 3.48757C67.8672 3.08274 67.39 2.78445 66.8488 2.59268C66.3118 2.39666 65.7408 2.29865 65.1357 2.29865C64.1982 2.29865 63.3821 2.51385 62.6875 2.94425C61.9929 3.37038 61.4517 3.96697 61.064 4.73402C60.6804 5.4968 60.4887 6.38317 60.4887 7.39311C60.4887 8.4201 60.6804 9.31285 61.064 10.0714C61.4475 10.8256 61.9951 11.4094 62.7067 11.8228ZM62.7881 6.40874C62.8104 6.02408 62.9089 5.66825 63.0838 5.34126C63.2841 4.97052 63.5632 4.67223 63.9212 4.44638C64.2792 4.21626 64.6946 4.10121 65.1677 4.10121C65.6108 4.10121 65.9986 4.20135 66.331 4.40163C66.6677 4.60192 66.9297 4.87678 67.1172 5.22621C67.3047 5.57138 67.4006 5.96555 67.4049 6.40874H62.7881Z" fill="#252525"/>
<path d="M38.5096 2.42649L42.07 12.4492C41.6502 13.5732 41.2352 14.6989 40.8192 15.8242H43.2641L48.0593 2.42649H45.5984L43.3292 9.84126H43.227L40.9642 2.42649H38.5096Z" fill="#252525"/>
<path d="M21.3886 2.42578L24.9489 12.4485C24.5292 13.5724 24.1142 14.6982 23.6982 15.8235H26.143L30.9383 2.42578H28.4774L26.2082 9.84055H26.1059L23.8431 2.42578H21.3886Z" fill="#252525"/>
</svg>
