<svg width="24" height="24" viewBox="0 0 24 24" fill="none" xmlns="http://www.w3.org/2000/svg">
<path d="M8.25 2.75H5.25C3.86929 2.75 2.75 3.86929 2.75 5.25V8.25" stroke="#2AA7EE" stroke-width="1.5" stroke-linecap="round" stroke-linejoin="round"/>
<path d="M15.765 2.75H18.765C20.1457 2.75 21.265 3.86929 21.265 5.25V8.25" stroke="#2AA7EE" stroke-width="1.5" stroke-linecap="round" stroke-linejoin="round"/>
<path d="M8.22933 21.25H5.25C3.86929 21.25 2.75 20.1307 2.75 18.75V15.75" stroke="#2AA7EE" stroke-width="1.5" stroke-linecap="round" stroke-linejoin="round"/>
<path d="M15.75 21.25H18.7294C20.1101 21.25 21.2294 20.1307 21.2294 18.75V15.75" stroke="#2AA7EE" stroke-width="1.5" stroke-linecap="round" stroke-linejoin="round"/>
<path d="M11.5605 5C12.2202 5 12.853 5.26096 13.3213 5.72559L16.7607 9.13867C17.2337 9.60803 17.5 10.2468 17.5 10.9131V16.5C17.5 17.8807 16.3807 19 15 19H9C7.61929 19 6.5 17.8807 6.5 16.5V7.5C6.5 6.11929 7.61929 5 9 5H11.5605Z" fill="#2AA7EE" stroke="white"/>
<path d="M12 5.5V9.5C12 10.0523 12.4477 10.5 13 10.5H17" stroke="white" stroke-linecap="round" stroke-linejoin="round"/>
</svg>
