<svg width="24" height="24" viewBox="0 0 24 24" fill="none" xmlns="http://www.w3.org/2000/svg">
<path d="M7 6C7 4.89543 7.89543 4 9 4H16.3333C16.7661 4 17.1871 4.14036 17.5333 4.4L19.9333 6.2C20.4667 6.6 20.4667 7.4 19.9333 7.8L17.5333 9.6C17.1871 9.85964 16.7661 10 16.3333 10H9C7.89543 10 7 9.10457 7 8V6Z" fill="#A7A7A7"/>
<path d="M17 14C17 12.8954 16.1046 12 15 12H7.66667C7.23393 12 6.81286 12.1404 6.46667 12.4L4.06667 14.2C3.53333 14.6 3.53333 15.4 4.06667 15.8L6.46667 17.6C6.81286 17.8596 7.23393 18 7.66667 18H15C16.1046 18 17 17.1046 17 16V14Z" fill="#A7A7A7"/>
<path d="M12 2C12.4142 2 12.75 2.33579 12.75 2.75V20.5H14.25C14.6642 20.5 15 20.8358 15 21.25C15 21.6642 14.6642 22 14.25 22H9.75C9.33579 22 9 21.6642 9 21.25C9 20.8358 9.33579 20.5 9.75 20.5H11.25V2.75C11.25 2.33579 11.5858 2 12 2Z" fill="#A7A7A7"/>
</svg>
