<svg width="24" height="24" viewBox="0 0 24 24" fill="none" xmlns="http://www.w3.org/2000/svg">
<path d="M13.8783 4C14.2764 4.0001 14.6585 4.15865 14.9398 4.44043L16.0707 5.57324C16.3521 5.85511 16.7339 6.01367 17.1322 6.01367H19.5004C20.8811 6.01367 22.0004 7.13296 22.0004 8.51367V17.5137C22.0004 18.8944 20.8811 20.0137 19.5004 20.0137H4.50037C3.11965 20.0137 2.00037 18.8944 2.00037 17.5137V8.51367C2.00037 7.13296 3.11965 6.01367 4.50037 6.01367H6.86853C7.26681 6.01362 7.64871 5.85516 7.93005 5.57324L9.06091 4.44043C9.34229 4.15859 9.72417 4 10.1224 4H13.8783ZM12.0004 8.5C9.51508 8.5 7.50037 10.5147 7.50037 13C7.50037 15.4853 9.51508 17.5 12.0004 17.5C14.4855 17.4998 16.5004 15.4852 16.5004 13C16.5004 10.5148 14.4855 8.5002 12.0004 8.5ZM12.0004 9.78613C13.7754 9.78633 15.2142 11.2249 15.2142 13C15.2142 14.7751 13.7754 16.2137 12.0004 16.2139C10.2252 16.2139 8.7865 14.7752 8.7865 13C8.7865 11.2248 10.2252 9.78613 12.0004 9.78613Z" fill="#A7A7A7"/>
</svg>
