<svg width="33" height="32" viewBox="0 0 33 32" fill="none" xmlns="http://www.w3.org/2000/svg">
<path d="M24.4099 19.6657C24.3386 19.5797 24.2685 19.4938 24.1998 19.4109C23.2545 18.2675 22.6826 17.5774 22.6826 14.3405C22.6826 12.6648 22.2817 11.2898 21.4915 10.2585C20.9088 9.49668 20.1212 8.91875 19.0831 8.49164C19.0697 8.48421 19.0578 8.47446 19.0478 8.46285C18.6744 7.21246 17.6527 6.375 16.5002 6.375C15.3478 6.375 14.3264 7.21246 13.953 8.46156C13.9431 8.47275 13.9313 8.48219 13.9182 8.48949C11.4957 9.4868 10.3183 11.4002 10.3183 14.3393C10.3183 17.5774 9.74726 18.2675 8.80109 19.4096C8.73234 19.4925 8.6623 19.5767 8.59097 19.6644C8.40672 19.8866 8.28998 20.1569 8.25458 20.4434C8.21917 20.7299 8.26657 21.0205 8.39117 21.2809C8.65628 21.8395 9.22132 22.1862 9.86628 22.1862H23.1389C23.7809 22.1862 24.342 21.8399 24.608 21.2839C24.7331 21.0234 24.781 20.7326 24.7459 20.4458C24.7108 20.159 24.5942 19.8882 24.4099 19.6657ZM16.5002 25.625C17.1211 25.6245 17.7303 25.456 18.2632 25.1372C18.7961 24.8185 19.2328 24.3615 19.5269 23.8147C19.5408 23.7885 19.5477 23.7592 19.5468 23.7295C19.546 23.6999 19.5375 23.671 19.5222 23.6456C19.5069 23.6202 19.4853 23.5992 19.4594 23.5847C19.4336 23.5701 19.4045 23.5625 19.3748 23.5625H13.6265C13.5968 23.5624 13.5676 23.57 13.5417 23.5845C13.5158 23.599 13.4942 23.62 13.4788 23.6454C13.4634 23.6708 13.4549 23.6998 13.4541 23.7294C13.4532 23.7591 13.4601 23.7885 13.4739 23.8147C13.7681 24.3615 14.2047 24.8184 14.7375 25.1371C15.2703 25.4558 15.8794 25.6244 16.5002 25.625Z" fill="#252525"/>
</svg>
