<svg width="18" height="27" viewBox="0 0 18 27" fill="none" xmlns="http://www.w3.org/2000/svg">
<g clip-path="url(#clip0_10923_3262)">
<path d="M9 13.5C9 12.3065 9.47411 11.1619 10.318 10.318C11.1619 9.47411 12.3065 9 13.5 9C14.6935 9 15.8381 9.47411 16.682 10.318C17.5259 11.1619 18 12.3065 18 13.5C18 14.6935 17.5259 15.8381 16.682 16.682C15.8381 17.5259 14.6935 18 13.5 18C12.3065 18 11.1619 17.5259 10.318 16.682C9.47411 15.8381 9 14.6935 9 13.5Z" fill="#1ABCFE"/>
<path d="M0 22.5C0 21.3065 0.474106 20.1619 1.31802 19.318C2.16193 18.4741 3.30653 18 4.5 18H9V22.5C9 23.6935 8.52589 24.8381 7.68198 25.682C6.83807 26.5259 5.69347 27 4.5 27C3.30653 27 2.16193 26.5259 1.31802 25.682C0.474106 24.8381 0 23.6935 0 22.5H0Z" fill="#0ACF83"/>
<path d="M9 0V9H13.5C14.6935 9 15.8381 8.52589 16.682 7.68198C17.5259 6.83807 18 5.69347 18 4.5C18 3.30653 17.5259 2.16193 16.682 1.31802C15.8381 0.474106 14.6935 0 13.5 0L9 0Z" fill="#FF7262"/>
<path d="M0 4.5C0 5.69347 0.474106 6.83807 1.31802 7.68198C2.16193 8.52589 3.30653 9 4.5 9H9V0H4.5C3.30653 0 2.16193 0.474106 1.31802 1.31802C0.474106 2.16193 0 3.30653 0 4.5H0Z" fill="#F24E1E"/>
<path d="M0 13.5C0 14.6935 0.474106 15.8381 1.31802 16.682C2.16193 17.5259 3.30653 18 4.5 18H9V9H4.5C3.30653 9 2.16193 9.47411 1.31802 10.318C0.474106 11.1619 0 12.3065 0 13.5H0Z" fill="#A259FF"/>
</g>
<defs>
<clipPath id="clip0_10923_3262">
<rect width="18" height="27" fill="white"/>
</clipPath>
</defs>
</svg>
