<svg width="40" height="41" viewBox="0 0 40 41" fill="none" xmlns="http://www.w3.org/2000/svg">
<path d="M8 15.5V11.9C8 9.74609 9.74609 8 11.9 8H15.5C15.9971 8 16.4 8.40294 16.4 8.9C16.4 9.39706 15.9971 9.8 15.5 9.8H11.9C10.7402 9.8 9.8 10.7402 9.8 11.9V15.5C9.8 15.9971 9.39706 16.4 8.9 16.4C8.40294 16.4 8 15.9971 8 15.5Z" fill="#2AA7EE"/>
<path d="M32 15.5V11.9C32 9.74609 30.2539 8 28.1 8H24.5C24.0029 8 23.6 8.40294 23.6 8.9C23.6 9.39706 24.0029 9.8 24.5 9.8H28.1C29.2598 9.8 30.2 10.7402 30.2 11.9V15.5C30.2 15.9971 30.6029 16.4 31.1 16.4C31.5971 16.4 32 15.9971 32 15.5Z" fill="#2AA7EE"/>
<path d="M8 24.5V28.1C8 30.2539 9.74609 32 11.9 32H15.4754L15.5668 31.9953C16.0208 31.9494 16.3754 31.5661 16.3754 31.1C16.3754 30.6339 16.0208 30.2506 15.5668 30.2047L15.4754 30.2H11.9C10.7402 30.2 9.8 29.2598 9.8 28.1V24.5C9.8 24.0029 9.39706 23.6 8.9 23.6C8.40294 23.6 8 24.0029 8 24.5Z" fill="#2AA7EE"/>
<path d="M31.9752 24.5V28.1C31.9752 30.2539 30.2291 32 28.0752 32H24.4998L24.4084 31.9953C23.9544 31.9494 23.5998 31.5661 23.5998 31.1C23.5998 30.6339 23.9544 30.2506 24.4084 30.2047L24.4998 30.2H28.0752C29.235 30.2 30.1752 29.2598 30.1752 28.1V24.5C30.1752 24.0029 30.5782 23.6 31.0752 23.6C31.5723 23.6 31.9752 24.0029 31.9752 24.5Z" fill="#2AA7EE"/>
<path d="M19.4 12.2V17C19.4 17.9941 20.2059 18.8 21.2 18.8H26V25.4C26 26.7255 24.9255 27.8 23.6 27.8H16.4C15.0745 27.8 14 26.7255 14 25.4V14.6C14 13.2745 15.0745 12.2 16.4 12.2H19.4ZM20.6 12.4813C20.8052 12.5904 20.9957 12.7294 21.1637 12.8961L25.291 16.9918C25.4717 17.1712 25.6186 17.3777 25.7328 17.6H21.2C20.8686 17.6 20.6 17.3314 20.6 17V12.4813Z" fill="#2AA7EE"/>
</svg>
