<svg width="28" height="28" viewBox="0 0 28 28" fill="none" xmlns="http://www.w3.org/2000/svg">
<rect width="28" height="28" rx="6" fill="#0FC8BA"/>
<path d="M14.9688 7C14.6692 7.60258 14.5 8.28142 14.5 9C14.5 11.4853 16.5147 13.5 19 13.5C19.7186 13.5 20.3974 13.3308 21 13.0312V17C21 19.2091 19.2091 21 17 21H11C8.79086 21 7 19.2091 7 17V11C7 8.79086 8.79086 7 11 7H14.9688ZM19 6C20.6569 6 22 7.34315 22 9C22 10.6569 20.6569 12 19 12C17.3431 12 16 10.6569 16 9C16 7.34315 17.3431 6 19 6Z" fill="white"/>
</svg>
