<svg width="24" height="24" viewBox="0 0 24 24" fill="none" xmlns="http://www.w3.org/2000/svg">
<path d="M19.8185 17.6982C19.9347 17.5784 20.033 17.4399 20.1076 17.2842C20.2327 17.0237 20.2814 16.7321 20.2463 16.4453C20.2111 16.1588 20.0943 15.8884 19.9103 15.666C19.839 15.5801 19.7681 15.4941 19.6994 15.4111C18.7541 14.2678 18.1828 13.5774 18.1828 10.3408C18.1828 8.66512 17.7815 7.29002 16.9914 6.25879C16.4087 5.49695 15.6213 4.91832 14.5832 4.49121C14.5699 4.48381 14.5579 4.47442 14.548 4.46289C14.1746 3.2125 13.1526 2.375 12.0002 2.375C10.8477 2.375 9.82669 3.21281 9.45329 4.46191C9.44335 4.47306 9.43116 4.48197 9.41813 4.48926C8.73753 4.76944 8.15562 5.12258 7.67008 5.5498L19.8185 17.6982ZM6.0734 8.19531C5.90302 8.83762 5.81855 9.5514 5.81852 10.3389C5.81852 13.5768 5.24702 14.2672 4.30094 15.4092C4.23225 15.492 4.16225 15.5765 4.09098 15.6641C3.90673 15.8863 3.78948 16.1569 3.75407 16.4434C3.71867 16.7298 3.76619 17.0209 3.89079 17.2812C4.15594 17.8397 4.72149 18.1865 5.36637 18.1865H16.0656L6.0734 8.19531ZM12.0002 21.625C12.6209 21.6245 13.2301 21.4562 13.7629 21.1377C14.2957 20.819 14.7324 20.3613 15.0265 19.8145C15.0404 19.7883 15.0479 19.7591 15.047 19.7295C15.0462 19.6999 15.0369 19.6709 15.0216 19.6455C15.0063 19.6203 14.9849 19.5995 14.9591 19.585C14.9335 19.5705 14.9047 19.5625 14.8752 19.5625H9.12614C9.09655 19.5624 9.06698 19.5705 9.04118 19.585C9.01554 19.5995 8.99393 19.6203 8.97868 19.6455C8.96335 19.6709 8.95512 19.6999 8.95426 19.7295C8.95342 19.7591 8.96001 19.7883 8.9738 19.8145C9.2679 20.3611 9.70474 20.818 10.2375 21.1367C10.7703 21.4554 11.3793 21.6244 12.0002 21.625Z" fill="#252525"/>
<rect x="5.06055" y="4" width="22" height="1.5" rx="0.75" transform="rotate(45 5.06055 4)" fill="#252525"/>
</svg>
