<svg width="18" height="19" viewBox="0 0 18 19" fill="none" xmlns="http://www.w3.org/2000/svg">
<path d="M5.32617 7.32568H3.60059C2.96973 7.32568 2.39144 7.17415 1.86572 6.87109C1.34619 6.56803 0.931803 6.15983 0.622559 5.64648C0.313314 5.13314 0.158691 4.55794 0.158691 3.9209C0.158691 3.28385 0.313314 2.70557 0.622559 2.18604C0.931803 1.6665 1.34619 1.25212 1.86572 0.942871C2.39144 0.627441 2.96973 0.469727 3.60059 0.469727C4.23145 0.469727 4.80664 0.627441 5.32617 0.942871C5.8457 1.25212 6.26009 1.6696 6.56934 2.19531C6.87858 2.71484 7.0332 3.29004 7.0332 3.9209V5.63721H10.9575V3.9209C10.9575 3.29004 11.1121 2.71484 11.4214 2.19531C11.7368 1.6696 12.1543 1.25212 12.6738 0.942871C13.1934 0.627441 13.7686 0.469727 14.3994 0.469727C15.0365 0.469727 15.6147 0.627441 16.1343 0.942871C16.6538 1.25212 17.0651 1.6665 17.3682 2.18604C17.6774 2.70557 17.832 3.28385 17.832 3.9209C17.832 4.55794 17.6774 5.13314 17.3682 5.64648C17.0651 6.15983 16.6538 6.56803 16.1343 6.87109C15.6147 7.17415 15.0365 7.32568 14.3994 7.32568H12.6646V11.2964H14.3994C15.0365 11.2964 15.6147 11.4479 16.1343 11.751C16.6538 12.054 17.0651 12.4622 17.3682 12.9756C17.6774 13.4889 17.832 14.0641 17.832 14.7012C17.832 15.332 17.6774 15.9072 17.3682 16.4268C17.0651 16.9525 16.6538 17.37 16.1343 17.6792C15.6147 17.9884 15.0365 18.1431 14.3994 18.1431C13.7686 18.1431 13.1934 17.9884 12.6738 17.6792C12.1543 17.37 11.7368 16.9525 11.4214 16.4268C11.1121 15.9072 10.9575 15.332 10.9575 14.7012V12.9849H7.0332V14.7012C7.0332 15.332 6.87858 15.9072 6.56934 16.4268C6.26009 16.9525 5.8457 17.37 5.32617 17.6792C4.80664 17.9884 4.23145 18.1431 3.60059 18.1431C2.96973 18.1431 2.39144 17.9884 1.86572 17.6792C1.34619 17.37 0.931803 16.9525 0.622559 16.4268C0.313314 15.9072 0.158691 15.332 0.158691 14.7012C0.158691 14.0641 0.313314 13.4889 0.622559 12.9756C0.931803 12.4622 1.34619 12.054 1.86572 11.751C2.39144 11.4479 2.96973 11.2964 3.60059 11.2964H5.32617V7.32568ZM3.61914 5.65576H5.32617V3.93945C5.32617 3.61784 5.24577 3.32406 5.08496 3.05811C4.93034 2.79215 4.72314 2.57878 4.46338 2.41797C4.20361 2.25716 3.91602 2.17676 3.60059 2.17676C3.28516 2.17676 2.99447 2.25716 2.72852 2.41797C2.46875 2.57259 2.26156 2.78288 2.10693 3.04883C1.95231 3.30859 1.875 3.59928 1.875 3.9209C1.875 4.23633 1.95231 4.52702 2.10693 4.79297C2.26774 5.05273 2.47803 5.26302 2.73779 5.42383C3.00374 5.57845 3.29753 5.65576 3.61914 5.65576ZM14.3716 5.65576C14.6932 5.65576 14.987 5.57845 15.2529 5.42383C15.5189 5.26302 15.7292 5.05273 15.8838 4.79297C16.0446 4.52702 16.125 4.23633 16.125 3.9209C16.125 3.59928 16.0477 3.30859 15.8931 3.04883C15.7384 2.78288 15.5282 2.57259 15.2622 2.41797C15.0024 2.25716 14.7148 2.17676 14.3994 2.17676C14.084 2.17676 13.7933 2.25716 13.5273 2.41797C13.2676 2.57878 13.0573 2.79215 12.8965 3.05811C12.7419 3.32406 12.6646 3.61784 12.6646 3.93945V5.65576H14.3716ZM7.0332 11.2964H10.9575V7.32568H7.0332V11.2964ZM3.61914 12.957C3.29753 12.957 3.00374 13.0343 2.73779 13.189C2.47803 13.3436 2.26774 13.5539 2.10693 13.8198C1.95231 14.0796 1.875 14.3703 1.875 14.6919C1.875 15.0073 1.95231 15.298 2.10693 15.564C2.26156 15.8237 2.46875 16.0309 2.72852 16.1855C2.99447 16.3402 3.28516 16.4175 3.60059 16.4175C3.91602 16.4175 4.20361 16.3371 4.46338 16.1763C4.72314 16.0216 4.93034 15.8114 5.08496 15.5454C5.24577 15.2795 5.32617 14.9857 5.32617 14.6641V12.957H3.61914ZM14.3716 12.957H12.6646V14.6641C12.6646 14.9857 12.7419 15.2795 12.8965 15.5454C13.0573 15.8114 13.2676 16.0216 13.5273 16.1763C13.7933 16.3371 14.084 16.4175 14.3994 16.4175C14.7148 16.4175 15.0024 16.3402 15.2622 16.1855C15.5282 16.0309 15.7384 15.8237 15.8931 15.564C16.0477 15.298 16.125 15.0073 16.125 14.6919C16.125 14.3703 16.0446 14.0796 15.8838 13.8198C15.7292 13.5539 15.5189 13.3436 15.2529 13.189C14.987 13.0343 14.6932 12.957 14.3716 12.957Z" fill="#A7A7A7"/>
</svg>
