<svg width="24" height="24" viewBox="0 0 24 24" fill="none" xmlns="http://www.w3.org/2000/svg">
<circle cx="12" cy="12" r="9.25" stroke="#0FC8BA" stroke-width="1.5"/>
<path d="M12 3.75C13.1586 3.75 14.3289 4.52174 15.249 6.02734C16.1612 7.52007 16.75 9.62978 16.75 12C16.75 14.3702 16.1612 16.4799 15.249 17.9727C14.3289 19.4783 13.1586 20.25 12 20.25C10.8414 20.25 9.67107 19.4783 8.75098 17.9727C7.83879 16.4799 7.25 14.3702 7.25 12C7.25 9.62978 7.83879 7.52007 8.75098 6.02734C9.67107 4.52174 10.8414 3.75 12 3.75Z" stroke="#0FC8BA" stroke-width="1.5"/>
<rect x="3" y="11.25" width="18" height="1.5" fill="#0FC8BA"/>
<rect x="11.25" y="3" width="1.5" height="18" fill="#0FC8BA"/>
</svg>
