<svg width="24" height="24" viewBox="0 0 24 24" fill="none" xmlns="http://www.w3.org/2000/svg">
<path d="M9 13C10.1046 13 11 13.8954 11 15V20C11 21.0357 10.2128 21.887 9.2041 21.9893L9 22H4L3.7959 21.9893C2.85435 21.8938 2.1062 21.1457 2.01074 20.2041L2 20V15C2 13.8954 2.89543 13 4 13H9ZM15.5 19C15.7761 19 16 19.2239 16 19.5V21.5C16 21.7761 15.7761 22 15.5 22H13.5C13.2239 22 13 21.7761 13 21.5V19.5C13 19.2239 13.2239 19 13.5 19H15.5ZM21.5 19C21.7761 19 22 19.2239 22 19.5V21.5C22 21.7761 21.7761 22 21.5 22H19.5C19.2239 22 19 21.7761 19 21.5V19.5C19 19.2239 19.2239 19 19.5 19H21.5ZM4 14.5C3.72386 14.5 3.5 14.7239 3.5 15V20C3.5 20.2761 3.72386 20.5 4 20.5H9C9.27614 20.5 9.5 20.2761 9.5 20V15C9.5 14.7239 9.27614 14.5 9 14.5H4ZM7.5 16C7.77614 16 8 16.2239 8 16.5V18.5C8 18.7761 7.77614 19 7.5 19H5.5C5.22386 19 5 18.7761 5 18.5V16.5C5 16.2239 5.22386 16 5.5 16H7.5ZM18.5 16C18.7761 16 19 16.2239 19 16.5V18.5C19 18.7761 18.7761 19 18.5 19H16.5C16.2239 19 16 18.7761 16 18.5V16.5C16 16.2239 16.2239 16 16.5 16H18.5ZM15.5 13C15.7761 13 16 13.2239 16 13.5V15.5C16 15.7761 15.7761 16 15.5 16H13.5C13.2239 16 13 15.7761 13 15.5V13.5C13 13.2239 13.2239 13 13.5 13H15.5ZM21.5 13C21.7761 13 22 13.2239 22 13.5V15.5C22 15.7761 21.7761 16 21.5 16H19.5C19.2239 16 19 15.7761 19 15.5V13.5C19 13.2239 19.2239 13 19.5 13H21.5ZM9 2C10.1046 2 11 2.89543 11 4V9C11 10.0357 10.2128 10.887 9.2041 10.9893L9 11H4L3.7959 10.9893C2.85435 10.8938 2.1062 10.1457 2.01074 9.2041L2 9V4C2 2.89543 2.89543 2 4 2H9ZM20 2C21.1046 2 22 2.89543 22 4V9C22 10.0357 21.2128 10.887 20.2041 10.9893L20 11H15L14.7959 10.9893C13.8543 10.8938 13.1062 10.1457 13.0107 9.2041L13 9V4C13 2.89543 13.8954 2 15 2H20ZM4 3.5C3.72386 3.5 3.5 3.72386 3.5 4V9C3.5 9.27614 3.72386 9.5 4 9.5H9C9.27614 9.5 9.5 9.27614 9.5 9V4C9.5 3.72386 9.27614 3.5 9 3.5H4ZM15 3.5C14.7239 3.5 14.5 3.72386 14.5 4V9C14.5 9.27614 14.7239 9.5 15 9.5H20C20.2761 9.5 20.5 9.27614 20.5 9V4C20.5 3.72386 20.2761 3.5 20 3.5H15ZM7.5 5C7.77614 5 8 5.22386 8 5.5V7.5C8 7.77614 7.77614 8 7.5 8H5.5C5.22386 8 5 7.77614 5 7.5V5.5C5 5.22386 5.22386 5 5.5 5H7.5ZM18.5 5C18.7761 5 19 5.22386 19 5.5V7.5C19 7.77614 18.7761 8 18.5 8H16.5C16.2239 8 16 7.77614 16 7.5V5.5C16 5.22386 16.2239 5 16.5 5H18.5Z" fill="#252525"/>
</svg>
