<svg width="40" height="40" viewBox="0 0 40 40" fill="none" xmlns="http://www.w3.org/2000/svg">
<path d="M22.2539 9.39984C22.7313 9.39984 23.1888 9.58964 23.5264 9.92719L24.8721 11.2729C25.2096 11.6105 25.6681 11.8002 26.1455 11.8002H29C30.6569 11.8002 32 13.1434 32 14.8002V25.6C32 27.2569 30.6569 28.6 29 28.6H11C9.34317 28.6 8 27.2569 8 25.6V14.8002C8 13.1434 9.34317 11.8003 11 11.8002H13.8535C14.3309 11.8002 14.7894 11.6105 15.127 11.2729L16.4727 9.92719C16.8102 9.58963 17.2678 9.39987 17.7451 9.39984H22.2539ZM20 14.8002C17.0177 14.8002 14.5997 17.2174 14.5996 20.1996C14.5996 23.182 17.0177 25.6 20 25.6C22.9821 25.5998 25.3994 23.1818 25.3994 20.1996C25.3993 17.2175 22.9821 14.8005 20 14.8002ZM20 16.3432C22.13 16.3434 23.8563 18.0696 23.8564 20.1996C23.8564 22.3297 22.13 24.0559 20 24.0561C17.8698 24.0561 16.1426 22.3299 16.1426 20.1996C16.1427 18.0695 17.8698 16.3432 20 16.3432Z" fill="#A7A7A7"/>
</svg>
