<svg width="512" height="512" viewBox="0 0 512 512" fill="none" xmlns="http://www.w3.org/2000/svg">
<g clip-path="url(#clip0_10421_3129)">
<path d="M77.0502 435.078C68.5614 426.589 63.2043 417.688 60.9791 408.375C58.6714 398.98 58.8775 389.955 61.5972 381.301C64.3169 372.483 69.0147 364.736 75.6904 358.06C79.8936 353.857 84.3441 350.643 89.0418 348.417C93.6571 346.11 98.9729 344.255 104.989 342.854C110.676 341.453 114.138 339.146 115.374 335.931C116.692 332.635 115.827 329.462 112.778 326.412L67.0367 280.671C54.9215 268.556 48.9051 256.276 48.9875 243.831C49.0699 231.222 55.2923 218.736 67.6548 206.373L100.662 173.365C103.629 170.398 106.761 169.574 110.058 170.893C113.355 172.047 115.703 175.467 117.104 181.154C118.506 187.335 120.319 192.774 122.544 197.472C124.769 202.005 127.983 206.373 132.187 210.576C138.862 217.252 146.61 221.95 155.428 224.669C164.164 227.307 173.189 227.513 182.502 225.288C191.897 222.98 200.798 217.623 209.205 209.216C217.611 200.81 222.927 191.95 225.152 182.637C227.46 173.242 227.254 164.217 224.534 155.563C221.814 146.745 217.117 138.998 210.441 132.322C206.238 128.119 201.87 124.905 197.337 122.679C192.721 120.372 187.323 118.517 181.142 117.116C175.455 115.715 171.994 113.408 170.757 110.193C169.521 106.814 170.387 103.641 173.354 100.674L206.361 67.6666C218.641 55.3866 231.086 49.2054 243.696 49.123C256.223 48.9581 268.544 54.9333 280.659 67.0485L326.4 112.789C329.45 115.839 332.582 116.745 335.796 115.509C339.093 114.191 341.4 110.729 342.719 105.125C344.202 99.026 346.098 93.6689 348.406 89.0536C350.631 84.3559 353.804 79.9466 357.925 75.8258C364.683 69.0677 372.43 64.37 381.166 61.7326C389.902 58.9305 398.968 58.6833 408.363 60.9909C417.676 63.2162 426.577 68.5732 435.066 77.0621C443.473 85.4685 448.83 94.3695 451.137 103.765C453.363 113.078 453.115 122.144 450.396 130.962C447.676 139.616 442.937 147.322 436.179 154.08C432.058 158.201 427.69 161.415 423.075 163.723C418.377 165.948 412.979 167.802 406.88 169.286C401.276 170.604 397.814 172.912 396.495 176.209C395.259 179.423 396.166 182.555 399.215 185.604L444.956 231.345C457.154 243.543 463.17 255.905 463.005 268.433C462.841 280.96 456.618 293.363 444.338 305.643L411.33 338.651C408.363 341.618 405.232 342.525 401.935 341.371C398.721 340.135 396.413 336.673 395.012 330.986C393.611 324.805 391.757 319.407 389.449 314.792C387.224 310.259 384.009 305.891 379.806 301.687C373.13 295.012 365.383 290.314 356.565 287.594C347.829 284.792 338.804 284.586 329.491 286.976C320.178 289.201 311.318 294.517 302.912 302.924C294.505 311.33 289.148 320.231 286.841 329.627C284.533 338.857 284.739 347.882 287.459 356.7C290.179 365.519 294.876 373.266 301.552 379.942C305.755 384.145 310.123 387.359 314.656 389.584C319.354 391.81 324.793 393.623 330.975 395.024C336.661 396.425 340.082 398.774 341.235 402.07C342.472 405.285 341.606 408.375 338.639 411.342L305.632 444.35C293.269 456.712 280.824 462.976 268.297 463.141C255.852 463.223 243.531 457.166 231.333 444.968L185.592 399.227C182.543 396.178 179.37 395.312 176.073 396.631C172.859 397.867 170.551 401.329 169.15 407.015C167.749 413.032 165.936 418.389 163.711 423.087C161.403 427.702 158.148 432.111 153.945 436.314C147.269 442.99 139.563 447.729 130.827 450.531C122.091 453.168 113.066 453.374 103.753 451.149C94.3577 448.842 85.4567 443.485 77.0502 435.078Z" fill="#252525"/>
</g>
<defs>
<clipPath id="clip0_10421_3129">
<rect width="512" height="512" fill="white"/>
</clipPath>
</defs>
</svg>
