<svg width="18" height="18" viewBox="0 0 18 18" fill="none" xmlns="http://www.w3.org/2000/svg">
<g clip-path="url(#clip0_7705_2213)">
<path d="M2.7088 15.2957C2.41036 14.9973 2.22203 14.6844 2.1438 14.3569C2.06267 14.0266 2.06991 13.7094 2.16553 13.4051C2.26114 13.0951 2.4263 12.8227 2.66099 12.588C2.80876 12.4403 2.96522 12.3273 3.13038 12.249C3.29263 12.1679 3.47952 12.1027 3.69103 12.0535C3.89095 12.0042 4.01265 11.9231 4.05611 11.8101C4.10247 11.6942 4.07204 11.5826 3.96484 11.4754L2.35676 9.86735C1.93083 9.44142 1.71932 9.0097 1.72222 8.57219C1.72511 8.12888 1.94387 7.68992 2.37849 7.2553L3.53891 6.09487C3.64322 5.99057 3.75333 5.96159 3.86922 6.00795C3.98512 6.04852 4.0677 6.16876 4.11695 6.36868C4.16621 6.58599 4.22996 6.77722 4.30819 6.94238C4.38642 7.10174 4.49942 7.2553 4.64719 7.40307C4.88188 7.63776 5.15424 7.80292 5.46427 7.89853C5.7714 7.99125 6.08867 7.9985 6.41608 7.92027C6.74639 7.83914 7.05931 7.6508 7.35485 7.35526C7.65039 7.05972 7.83727 6.74825 7.91551 6.42084C7.99663 6.09053 7.98939 5.77326 7.89377 5.46903C7.79816 5.159 7.633 4.88664 7.39831 4.65195C7.25054 4.50418 7.09698 4.39118 6.93762 4.31295C6.77536 4.23182 6.58558 4.16663 6.36827 4.11737C6.16835 4.06811 6.04665 3.98698 6.00319 3.87398C5.95973 3.75519 5.99015 3.64364 6.09446 3.53933L7.25489 2.3789C7.68661 1.94718 8.12412 1.72987 8.56743 1.72698C9.00784 1.72118 9.44101 1.93125 9.86693 2.35717L11.475 3.96525C11.5822 4.07246 11.6923 4.10433 11.8053 4.06087C11.9212 4.01451 12.0024 3.89282 12.0487 3.69579C12.1009 3.48138 12.1675 3.29305 12.2486 3.13079C12.3269 2.96564 12.4384 2.81062 12.5833 2.66575C12.8209 2.42816 13.0932 2.26301 13.4004 2.17029C13.7075 2.07177 14.0262 2.06308 14.3565 2.14421C14.6839 2.22244 14.9969 2.41077 15.2953 2.70921C15.5908 3.00475 15.7792 3.31768 15.8603 3.64798C15.9385 3.9754 15.9298 4.29411 15.8342 4.60414C15.7386 4.90837 15.572 5.17928 15.3344 5.41687C15.1895 5.56175 15.036 5.67475 14.8737 5.75588C14.7086 5.83411 14.5188 5.8993 14.3044 5.95145C14.1073 5.99781 13.9857 6.07894 13.9393 6.19484C13.8958 6.30784 13.9277 6.41794 14.0349 6.52515L15.643 8.13323C16.0718 8.56205 16.2833 8.99667 16.2775 9.43708C16.2717 9.87749 16.053 10.3136 15.6213 10.7453L14.4608 11.9057C14.3565 12.01 14.2464 12.0419 14.1305 12.0013C14.0175 11.9579 13.9364 11.8362 13.8871 11.6362C13.8379 11.4189 13.7727 11.2291 13.6916 11.0669C13.6133 10.9075 13.5003 10.754 13.3526 10.6062C13.1179 10.3715 12.8455 10.2064 12.5355 10.1107C12.2284 10.0122 11.9111 10.005 11.5837 10.089C11.2563 10.1672 10.9448 10.3541 10.6492 10.6497C10.3537 10.9452 10.1654 11.2581 10.0842 11.5884C10.0031 11.9129 10.0104 12.2302 10.106 12.5402C10.2016 12.8503 10.3667 13.1226 10.6014 13.3573C10.7492 13.5051 10.9028 13.6181 11.0621 13.6963C11.2273 13.7746 11.4185 13.8383 11.6358 13.8876C11.8357 13.9368 11.956 14.0194 11.9966 14.1353C12.04 14.2483 12.0096 14.3569 11.9053 14.4612L10.7449 15.6217C10.3102 16.0563 9.87273 16.2765 9.43232 16.2823C8.9948 16.2852 8.56164 16.0722 8.13282 15.6434L6.52473 14.0353C6.41753 13.9281 6.30598 13.8977 6.19008 13.9441C6.07708 13.9875 5.99595 14.1092 5.94669 14.3091C5.89744 14.5206 5.83369 14.709 5.75546 14.8741C5.67433 15.0364 5.55988 15.1914 5.41211 15.3392C5.17742 15.5739 4.90651 15.7405 4.59938 15.839C4.29225 15.9317 3.97498 15.9389 3.64757 15.8607C3.31726 15.7796 3.00434 15.5913 2.7088 15.2957Z" fill="black" fill-opacity="0.15"/>
</g>
<defs>
<clipPath id="clip0_7705_2213">
<rect width="18" height="18" fill="white"/>
</clipPath>
</defs>
</svg>
