<svg width="24" height="24" viewBox="0 0 24 24" fill="none" xmlns="http://www.w3.org/2000/svg">
<path d="M16 13C18.2091 13 20 14.7909 20 17C20 19.2091 18.2091 21 16 21C13.7909 21 12 19.2091 12 17C12 14.7909 13.7909 13 16 13ZM16 14.5C15.5858 14.5 15.25 14.8358 15.25 15.25V16.25H14.25C13.8358 16.25 13.5 16.5858 13.5 17C13.5 17.4142 13.8358 17.75 14.25 17.75H15.25V18.75C15.25 19.1642 15.5858 19.5 16 19.5C16.4142 19.5 16.75 19.1642 16.75 18.75V17.75H17.75C18.1642 17.75 18.5 17.4142 18.5 17C18.5 16.5858 18.1642 16.25 17.75 16.25H16.75V15.25C16.75 14.8358 16.4142 14.5 16 14.5ZM10 11.25C11.1714 11.25 12.2639 11.5866 13.1875 12.167C11.5839 13.0655 10.5 14.7811 10.5 16.75C10.5 17.655 10.7286 18.5067 11.1318 19.25H6C4.89543 19.25 4 18.3546 4 17.25C4 13.9363 6.68629 11.25 10 11.25ZM10 2.75C11.7949 2.75 13.25 4.317 13.25 6.25C13.25 8.183 11.7949 9.75 10 9.75C8.20507 9.75 6.75 8.183 6.75 6.25C6.75 4.317 8.20507 2.75 10 2.75Z" fill="#252525"/>
</svg>
