<svg width="24" height="24" viewBox="0 0 24 24" fill="none" xmlns="http://www.w3.org/2000/svg">
<path d="M18.7399 1.849C19.2549 1.77796 19.7145 2.17866 19.7145 2.69861V17.5717H19.7125C19.7491 18.7784 18.6856 19.9951 17.1334 20.4213C15.3935 20.8989 13.6991 20.2024 13.3492 18.8656C12.9996 17.5286 14.1268 16.0571 15.8668 15.5795C16.8013 15.3229 17.7215 15.4073 18.4284 15.7455V7.03455L8.57191 8.39392V19.2865H8.56898C8.6052 20.4931 7.54192 21.7091 5.98987 22.1351C4.24992 22.6126 2.55634 21.9164 2.20667 20.5795C1.857 19.2425 2.98419 17.771 4.72425 17.2933C5.65881 17.0369 6.57895 17.1221 7.28577 17.4603V4.5492C7.28592 3.90713 7.76005 3.36349 8.39612 3.27576L18.7399 1.849Z" fill="#E51CA0"/>
</svg>
