<svg width="48" height="48" viewBox="0 0 48 48" fill="none" xmlns="http://www.w3.org/2000/svg">
<rect width="48" height="48" rx="24" fill="#8F9DEF"/>
<path d="M24 30C24.8284 30 25.5 30.6716 25.5 31.5V38.5C25.5 39.3284 24.8284 40 24 40C23.1716 40 22.5 39.3284 22.5 38.5V31.5C22.5 30.6716 23.1716 30 24 30ZM17.415 28.4639C18.0008 27.8785 18.9505 27.8783 19.5361 28.4639C20.1219 29.0497 20.1219 30.0002 19.5361 30.5859L14.5859 35.5352C14.0001 36.1209 13.0506 36.1209 12.4648 35.5352C11.8792 34.9494 11.8792 33.9998 12.4648 33.4141L17.415 28.4639ZM28.4648 28.4648C29.0506 27.8791 30.0002 27.8791 30.5859 28.4648L35.5361 33.4141C36.1217 33.9997 36.1215 34.9494 35.5361 35.5352C34.9503 36.1209 33.9998 36.1209 33.4141 35.5352L28.4648 30.5859C27.8791 30.0002 27.8792 29.0506 28.4648 28.4648ZM16.5 22.5C17.3284 22.5 18 23.1716 18 24C18 24.8284 17.3284 25.5 16.5 25.5H9.5C8.67157 25.5 8 24.8284 8 24C8 23.1716 8.67157 22.5 9.5 22.5H16.5ZM38.5 22.5C39.3284 22.5 40 23.1716 40 24C40 24.8284 39.3284 25.5 38.5 25.5H31.5C30.6716 25.5 30 24.8284 30 24C30 23.1716 30.6716 22.5 31.5 22.5H38.5ZM33.415 12.4648C34.0008 11.8791 34.9504 11.8791 35.5361 12.4648C36.1218 13.0506 36.1218 14.0002 35.5361 14.5859L30.5859 19.5361C30.0002 20.1215 29.0505 20.1217 28.4648 19.5361C27.8791 18.9503 27.8791 17.9998 28.4648 17.4141L33.415 12.4648ZM12.4648 12.4648C13.0506 11.8791 14.0002 11.8791 14.5859 12.4648L19.5361 17.4141C20.1217 17.9997 20.1215 18.9494 19.5361 19.5352C18.9503 20.1209 17.9998 20.1209 17.4141 19.5352L12.4648 14.5859C11.8791 14.0002 11.8792 13.0506 12.4648 12.4648ZM24 8C24.8284 8 25.5 8.67157 25.5 9.5V16.5C25.5 17.3284 24.8284 18 24 18C23.1716 18 22.5 17.3284 22.5 16.5V9.5C22.5 8.67157 23.1716 8 24 8Z" fill="black"/>
</svg>
