<svg width="32" height="32" viewBox="0 0 32 32" fill="none" xmlns="http://www.w3.org/2000/svg">
<path d="M23.7852 11.8359C25.6025 11.8359 28 12.6328 28 15.8516V24H26.5156V22.1016H26.4297C26.3746 22.2199 26.3112 22.3391 26.2383 22.457C25.6767 23.3976 24.6164 24.2734 22.8574 24.2734H22.749C20.5915 24.2734 18.8438 22.9609 18.8438 20.6484C18.8438 18.2735 20.7229 17.5156 23.4062 17.1797C23.6321 17.1514 23.8469 17.1265 24.0498 17.1025C25.6395 16.9151 26.5156 16.8115 26.5156 16.0078V15.7266C26.5156 14.1023 25.5375 13.1057 23.7695 13.0859C22.2157 13.103 21.1963 13.8487 20.7109 14.7646C20.672 14.8407 20.6363 14.918 20.6035 14.9961L20.6016 14.9951L20.5996 15L20.4346 14.9404L19.1836 14.5234C19.9878 12.5626 21.8595 11.836 23.6768 11.8359H23.7852ZM17 24H15.3975L13.7275 19.1797H7.27246L5.60254 24H4L9.68359 8H11.3164L17 24ZM26.5156 17.748C25.9734 18.0936 24.4181 18.2898 23.5146 18.3984C21.504 18.6484 20.3281 19.2578 20.3281 20.7109C20.3281 22.1472 21.462 22.9809 22.9893 23C25.1539 22.9732 26.5156 21.3508 26.5156 19.3984V17.748ZM7.73047 17.8672H13.2695L10.5 9.89844L7.73047 17.8672Z" fill="#A7A7A7"/>
</svg>
